<svg width="1139" height="982" viewBox="0 0 1139 982" fill="none" xmlns="http://www.w3.org/2000/svg">
<g clip-path="url(#clip0_1188_15182)">
<rect width="1139" height="982" fill="white"/>
<rect x="-373" width="1512" height="984" fill="#4649A3"/>
<path fill-rule="evenodd" clip-rule="evenodd" d="M137.996 118.011L111.847 171.524L103.049 212.584L137.996 118.011Z" fill="#FFC341"/>
<path fill-rule="evenodd" clip-rule="evenodd" d="M137.996 118.011L103.049 212.584L124.805 194.892L137.996 118.011Z" fill="#FFE141"/>
<path fill-rule="evenodd" clip-rule="evenodd" d="M272.93 116.257L225.642 100.984L208.072 83.7432" fill="#3BA0FD"/>
<path fill-rule="evenodd" clip-rule="evenodd" d="M235.49 85.8802L208.072 83.7432L272.93 116.257L235.49 85.8802Z" fill="#2187E5"/>
<path fill-rule="evenodd" clip-rule="evenodd" d="M312.745 88.436L309.491 98.989L295.407 101.722" fill="#4D52D0"/>
<path fill-rule="evenodd" clip-rule="evenodd" d="M303.765 86.355L295.407 101.722L312.745 88.436L303.765 86.355Z" fill="#5D6BDE"/>
<path fill-rule="evenodd" clip-rule="evenodd" d="M329.37 68.6321L313.91 79.5871L291.892 68.5811" fill="#F1C162"/>
<path fill-rule="evenodd" clip-rule="evenodd" d="M319.327 56.4131L291.892 68.5811L329.37 68.6321L319.327 56.4131Z" fill="#FFE141"/>
<path fill-rule="evenodd" clip-rule="evenodd" d="M131 100L49 108L0 60V0L131 100Z" fill="#3BA0FD"/>
<path fill-rule="evenodd" clip-rule="evenodd" d="M0 94.186L23 251.276L0 292V94.186Z" fill="#4D52D0"/>
<path fill-rule="evenodd" clip-rule="evenodd" d="M23 251.276L0 94.186L49 108L23 251.276Z" fill="#5D6BDE"/>
<path fill-rule="evenodd" clip-rule="evenodd" d="M49 108L48 231L23 251.276L49 108Z" fill="#FFE141"/>
<path fill-rule="evenodd" clip-rule="evenodd" d="M92 194L48 231L49 108L92 194Z" fill="#F1C162"/>
<path fill-rule="evenodd" clip-rule="evenodd" d="M131 100L49 108L0 60V94.186L119.474 128.078L131 100Z" fill="#2187E5"/>
<path fill-rule="evenodd" clip-rule="evenodd" d="M131 100L0 0H73L131 100Z" fill="#4D52D0"/>
<path fill-rule="evenodd" clip-rule="evenodd" d="M131 100L73 0H180.045L131 100Z" fill="#5D6BDE"/>
<path fill-rule="evenodd" clip-rule="evenodd" d="M49 108L92 194L119.474 128.078L49 108Z" fill="#FFE141"/>
<path fill-rule="evenodd" clip-rule="evenodd" d="M174.609 94.039L131 100L180.045 0L174.609 94.039Z" fill="#F1C162"/>
<path fill-rule="evenodd" clip-rule="evenodd" d="M194.867 68L174.609 94.039L180.045 0L194.867 68Z" fill="#FFE141"/>
<path fill-rule="evenodd" clip-rule="evenodd" d="M194.867 68L180.045 0H258.695L194.867 68Z" fill="#2187E5"/>
<path fill-rule="evenodd" clip-rule="evenodd" d="M194.867 68L258.695 0L245.335 80L194.867 68Z" fill="#3BA0FD"/>
<path fill-rule="evenodd" clip-rule="evenodd" d="M258.695 0L245.335 80L314.172 47L258.695 0Z" fill="#4D52D0"/>
<path fill-rule="evenodd" clip-rule="evenodd" d="M352.071 0L314.172 47L258.695 0H352.071Z" fill="#5D6BDE"/>
<path fill-rule="evenodd" clip-rule="evenodd" d="M440 47L395 0H352.071L440 47Z" fill="#5D6BDE"/>
<path fill-rule="evenodd" clip-rule="evenodd" d="M390.544 115.17L440.656 110.552L410.845 61.7031L390.544 115.17Z" fill="#4D52D0"/>
<path fill-rule="evenodd" clip-rule="evenodd" d="M410.845 61.7031L390.544 115.17L349.344 79.3791L410.845 61.7031Z" fill="#5D6BDE"/>
<path fill-rule="evenodd" clip-rule="evenodd" d="M440 47H500V0L440 47Z" fill="#2187E5"/>
<path fill-rule="evenodd" clip-rule="evenodd" d="M500 0L440 47L395 0H500Z" fill="#3BA0FD"/>
<path fill-rule="evenodd" clip-rule="evenodd" d="M649.398 956.267C649.398 956.934 649.502 957.501 649.708 957.968C649.915 958.439 650.199 958.793 650.561 959.028C650.921 959.264 651.315 959.387 651.742 959.387C652.173 959.387 652.567 959.27 652.926 959.047C653.282 958.823 653.568 958.477 653.781 958.009C653.995 957.547 654.102 956.961 654.102 956.267C654.102 955.611 653.995 955.047 653.781 954.575C653.568 954.105 653.281 953.745 652.916 953.494C652.552 953.246 652.154 953.122 651.722 953.122C651.271 953.122 650.869 953.249 650.515 953.506C650.16 953.76 649.886 954.126 649.691 954.604C649.495 955.083 649.398 955.635 649.398 956.267ZM654.237 959.88V959.638C653.905 960.016 653.58 960.323 653.258 960.559C652.938 960.798 652.59 960.977 652.213 961.098C651.837 961.225 651.429 961.284 650.984 961.284C650.394 961.284 649.85 961.16 649.348 960.912C648.846 960.661 648.414 960.305 648.046 959.843C647.679 959.381 647.402 958.839 647.213 958.213C647.024 957.587 646.929 956.912 646.929 956.187C646.929 954.65 647.305 953.45 648.055 952.59C648.807 951.731 649.794 951.303 651.02 951.303C651.728 951.303 652.327 951.424 652.812 951.666C653.299 951.911 653.774 952.286 654.237 952.788V949.159C654.237 948.654 654.336 948.273 654.539 948.013C654.739 947.756 655.026 947.626 655.398 947.626C655.771 947.626 656.057 947.744 656.258 947.984C656.459 948.22 656.561 948.568 656.561 949.032V959.88C656.561 960.348 656.453 960.701 656.237 960.934C656.021 961.167 655.741 961.284 655.398 961.284C655.062 961.284 654.785 961.163 654.565 960.922C654.345 960.677 654.237 960.332 654.237 959.88Z" fill="#5A5861"/>
<path fill-rule="evenodd" clip-rule="evenodd" d="M660.273 955.493H664.732C664.673 954.652 664.444 954.02 664.051 953.603C663.658 953.187 663.141 952.977 662.498 952.977C661.884 952.977 661.381 953.19 660.988 953.612C660.595 954.034 660.356 954.664 660.273 955.493ZM665.082 956.89H660.273C660.279 957.445 660.389 957.939 660.61 958.367C660.829 958.792 661.121 959.114 661.484 959.329C661.848 959.548 662.247 959.654 662.687 959.654C662.981 959.654 663.248 959.619 663.492 959.551C663.737 959.48 663.971 959.374 664.201 959.226C664.429 959.078 664.638 958.922 664.83 958.754C665.024 958.585 665.271 958.355 665.578 958.068C665.705 957.959 665.885 957.906 666.12 957.906C666.372 957.906 666.576 957.977 666.732 958.113C666.888 958.252 666.967 958.446 666.967 958.7C666.967 958.922 666.879 959.179 666.705 959.477C666.53 959.775 666.266 960.062 665.917 960.334C665.565 960.608 665.125 960.833 664.591 961.013C664.06 961.196 663.449 961.284 662.758 961.284C661.178 961.284 659.951 960.833 659.074 959.932C658.197 959.031 657.758 957.809 657.758 956.267C657.758 955.541 657.865 954.864 658.083 954.244C658.299 953.621 658.614 953.089 659.027 952.644C659.442 952.201 659.954 951.861 660.56 951.622C661.166 951.386 661.841 951.267 662.579 951.267C663.539 951.267 664.364 951.468 665.051 951.876C665.739 952.28 666.256 952.803 666.596 953.447C666.938 954.088 667.11 954.743 667.11 955.411C667.11 956.028 666.933 956.429 666.579 956.613C666.226 956.796 665.725 956.89 665.082 956.89Z" fill="#5A5861"/>
<path fill-rule="evenodd" clip-rule="evenodd" d="M676.29 958.068C676.29 958.749 676.125 959.329 675.795 959.812C675.464 960.296 674.976 960.662 674.33 960.913C673.685 961.161 672.9 961.285 671.974 961.285C671.091 961.285 670.335 961.15 669.703 960.881C669.073 960.609 668.609 960.271 668.308 959.868C668.008 959.459 667.859 959.056 667.859 958.644C667.859 958.374 667.952 958.142 668.146 957.95C668.338 957.758 668.581 957.665 668.876 957.665C669.133 957.665 669.331 957.727 669.47 957.854C669.608 957.978 669.74 958.158 669.867 958.384C670.118 958.824 670.42 959.149 670.772 959.366C671.123 959.58 671.602 959.691 672.21 959.691C672.702 959.691 673.105 959.58 673.422 959.363C673.736 959.14 673.893 958.889 673.893 958.61C673.893 958.176 673.731 957.863 673.403 957.665C673.075 957.467 672.535 957.275 671.785 957.095C670.939 956.884 670.249 956.664 669.718 956.432C669.186 956.202 668.761 955.899 668.444 955.521C668.125 955.14 667.964 954.675 667.964 954.123C667.964 953.63 668.111 953.163 668.406 952.726C668.701 952.289 669.135 951.938 669.709 951.675C670.282 951.415 670.975 951.282 671.785 951.282C672.422 951.282 672.995 951.35 673.502 951.483C674.01 951.613 674.433 951.793 674.772 952.016C675.112 952.236 675.369 952.481 675.547 952.753C675.724 953.023 675.812 953.287 675.812 953.547C675.812 953.829 675.717 954.058 675.529 954.238C675.34 954.418 675.071 954.51 674.722 954.51C674.471 954.51 674.256 954.439 674.078 954.291C673.901 954.151 673.698 953.934 673.47 953.646C673.285 953.405 673.066 953.215 672.814 953.069C672.561 952.924 672.218 952.853 671.785 952.853C671.341 952.853 670.972 952.946 670.677 953.138C670.384 953.327 670.236 953.559 670.236 953.844C670.236 954.102 670.344 954.312 670.559 954.477C670.775 954.644 671.067 954.783 671.435 954.889C671.801 954.994 672.304 955.127 672.948 955.285C673.71 955.471 674.333 955.694 674.817 955.951C675.301 956.209 675.667 956.515 675.918 956.868C676.166 957.219 676.29 957.618 676.29 958.068Z" fill="#5A5861"/>
<path fill-rule="evenodd" clip-rule="evenodd" d="M680.02 952.682V959.787C680.02 960.28 679.904 960.655 679.668 960.906C679.433 961.157 679.137 961.284 678.776 961.284C678.416 961.284 678.122 961.154 677.897 960.898C677.672 960.638 677.56 960.269 677.56 959.787V952.753C677.56 952.266 677.672 951.899 677.897 951.654C678.122 951.406 678.416 951.282 678.776 951.282C679.137 951.282 679.433 951.406 679.668 951.654C679.904 951.899 680.02 952.242 680.02 952.682ZM678.803 950.139C678.461 950.139 678.169 950.036 677.924 949.823C677.681 949.617 677.56 949.318 677.56 948.93C677.56 948.583 677.685 948.297 677.933 948.072C678.183 947.845 678.473 947.733 678.803 947.733C679.122 947.733 679.405 947.836 679.65 948.04C679.896 948.246 680.02 948.542 680.02 948.93C680.02 949.311 679.899 949.608 679.657 949.82C679.42 950.033 679.134 950.139 678.803 950.139Z" fill="#5A5861"/>
<path fill-rule="evenodd" clip-rule="evenodd" d="M683.667 956.202C683.667 957.2 683.885 957.953 684.32 958.465C684.756 958.976 685.32 959.233 686.011 959.233C686.419 959.233 686.803 959.121 687.168 958.902C687.53 958.684 687.827 958.353 688.057 957.913C688.282 957.47 688.398 956.934 688.398 956.302C688.398 955.301 688.178 954.52 687.736 953.962C687.293 953.404 686.712 953.122 685.991 953.122C685.29 953.122 684.726 953.392 684.304 953.925C683.879 954.458 683.667 955.22 683.667 956.202ZM690.795 953.088V960.231C690.795 961.049 690.707 961.752 690.532 962.34C690.36 962.927 690.08 963.415 689.694 963.799C689.312 964.182 688.807 964.469 688.187 964.655C687.565 964.841 686.791 964.935 685.866 964.935C685.019 964.935 684.261 964.814 683.595 964.578C682.929 964.342 682.417 964.035 682.054 963.66C681.694 963.285 681.514 962.898 681.514 962.502C681.514 962.201 681.617 961.956 681.821 961.767C682.024 961.578 682.272 961.483 682.559 961.483C682.919 961.483 683.235 961.643 683.505 961.962C683.637 962.124 683.773 962.287 683.915 962.452C684.057 962.617 684.213 962.759 684.384 962.877C684.555 962.992 684.76 963.081 685.001 963.137C685.24 963.193 685.518 963.223 685.829 963.223C686.467 963.223 686.96 963.134 687.311 962.957C687.664 962.78 687.91 962.532 688.051 962.213C688.191 961.897 688.276 961.554 688.3 961.191C688.323 960.828 688.341 960.243 688.353 959.437C687.974 959.968 687.538 960.37 687.042 960.648C686.548 960.922 685.955 961.061 685.271 961.061C684.449 961.061 683.729 960.851 683.114 960.429C682.498 960.01 682.024 959.422 681.694 958.663C681.364 957.907 681.199 957.033 681.199 956.044C681.199 955.304 681.299 954.634 681.5 954.04C681.703 953.448 681.989 952.946 682.361 952.537C682.734 952.127 683.164 951.821 683.649 951.613C684.136 951.406 684.67 951.303 685.253 951.303C685.95 951.303 686.554 951.436 687.065 951.703C687.574 951.97 688.049 952.391 688.488 952.961V952.626C688.488 952.202 688.592 951.87 688.804 951.635C689.014 951.4 689.284 951.282 689.614 951.282C690.089 951.282 690.403 951.44 690.559 951.749C690.716 952.056 690.795 952.505 690.795 953.088Z" fill="#5A5861"/>
<path fill-rule="evenodd" clip-rule="evenodd" d="M694.705 952.645V952.943C695.136 952.372 695.608 951.954 696.124 951.684C696.636 951.418 697.226 951.282 697.893 951.282C698.541 951.282 699.12 951.424 699.633 951.707C700.143 951.991 700.525 952.391 700.776 952.903C700.939 953.206 701.044 953.531 701.091 953.878C701.139 954.226 701.165 954.672 701.165 955.214V959.788C701.165 960.281 701.051 960.656 700.826 960.907C700.601 961.158 700.309 961.285 699.948 961.285C699.582 961.285 699.284 961.154 699.055 960.899C698.827 960.639 698.714 960.27 698.714 959.788V955.688C698.714 954.879 698.6 954.26 698.375 953.829C698.15 953.401 697.702 953.184 697.028 953.184C696.591 953.184 696.19 953.314 695.83 953.578C695.469 953.841 695.204 954.198 695.036 954.656C694.917 955.022 694.856 955.704 694.856 956.708V959.788C694.856 960.287 694.74 960.662 694.51 960.913C694.279 961.161 693.981 961.285 693.614 961.285C693.26 961.285 692.968 961.154 692.74 960.899C692.511 960.639 692.398 960.27 692.398 959.788V952.682C692.398 952.212 692.501 951.861 692.703 951.632C692.907 951.4 693.187 951.282 693.541 951.282C693.757 951.282 693.952 951.335 694.128 951.439C694.3 951.539 694.441 951.694 694.546 951.896C694.651 952.1 694.705 952.351 694.705 952.645Z" fill="#5A5861"/>
<path fill-rule="evenodd" clip-rule="evenodd" d="M704.857 955.493H709.318C709.258 954.652 709.031 954.02 708.638 953.603C708.243 953.187 707.726 952.977 707.083 952.977C706.469 952.977 705.966 953.19 705.573 953.612C705.18 954.034 704.942 954.664 704.857 955.493ZM709.667 956.89H704.857C704.863 957.445 704.975 957.939 705.195 958.367C705.415 958.792 705.706 959.114 706.07 959.329C706.432 959.548 706.834 959.654 707.272 959.654C707.566 959.654 707.835 959.619 708.078 959.551C708.32 959.48 708.557 959.374 708.786 959.226C709.013 959.078 709.223 958.922 709.418 958.754C709.608 958.585 709.858 958.355 710.165 958.068C710.29 957.959 710.47 957.906 710.706 957.906C710.957 957.906 711.161 957.977 711.317 958.113C711.474 958.252 711.551 958.446 711.551 958.7C711.551 958.922 711.465 959.179 711.291 959.477C711.116 959.775 710.853 960.062 710.502 960.334C710.15 960.608 709.71 960.833 709.177 961.013C708.645 961.196 708.034 961.284 707.343 961.284C705.765 961.284 704.535 960.833 703.658 959.932C702.783 959.031 702.343 957.809 702.343 956.267C702.343 955.541 702.452 954.864 702.668 954.244C702.884 953.621 703.2 953.089 703.615 952.644C704.027 952.201 704.538 951.861 705.145 951.622C705.751 951.386 706.425 951.267 707.165 951.267C708.125 951.267 708.949 951.468 709.637 951.876C710.325 952.28 710.839 952.803 711.182 953.447C711.524 954.088 711.696 954.743 711.696 955.411C711.696 956.028 711.518 956.429 711.164 956.613C710.81 956.796 710.311 956.89 709.667 956.89Z" fill="#5A5861"/>
<path fill-rule="evenodd" clip-rule="evenodd" d="M714.857 956.267C714.857 956.934 714.961 957.501 715.168 957.968C715.374 958.439 715.658 958.793 716.019 959.028C716.381 959.264 716.772 959.387 717.199 959.387C717.633 959.387 718.027 959.27 718.384 959.047C718.741 958.823 719.028 958.477 719.24 958.009C719.453 957.547 719.559 956.961 719.559 956.267C719.559 955.611 719.453 955.047 719.24 954.575C719.028 954.105 718.74 953.745 718.375 953.494C718.011 953.246 717.613 953.122 717.181 953.122C716.732 953.122 716.328 953.249 715.974 953.506C715.62 953.76 715.344 954.126 715.15 954.604C714.953 955.083 714.857 955.635 714.857 956.267ZM719.694 959.88V959.638C719.366 960.016 719.039 960.323 718.717 960.559C718.396 960.798 718.049 960.977 717.672 961.098C717.297 961.225 716.887 961.284 716.443 961.284C715.853 961.284 715.31 961.16 714.807 960.912C714.306 960.661 713.871 960.305 713.506 959.843C713.139 959.381 712.862 958.839 712.673 958.213C712.483 957.587 712.387 956.912 712.387 956.187C712.387 954.65 712.764 953.45 713.514 952.59C714.265 951.731 715.253 951.303 716.478 951.303C717.188 951.303 717.786 951.424 718.272 951.666C718.758 951.911 719.234 952.286 719.694 952.788V949.159C719.694 948.654 719.795 948.273 719.996 948.013C720.197 947.756 720.486 947.626 720.858 947.626C721.23 947.626 721.516 947.744 721.718 947.984C721.919 948.22 722.021 948.568 722.021 949.032V959.88C722.021 960.348 721.912 960.701 721.696 960.934C721.479 961.167 721.201 961.284 720.858 961.284C720.521 961.284 720.243 961.163 720.025 960.922C719.804 960.677 719.694 960.332 719.694 959.88Z" fill="#5A5861"/>
<path fill-rule="evenodd" clip-rule="evenodd" d="M729.865 956.339C729.865 957.318 730.089 958.068 730.537 958.594C730.984 959.121 731.571 959.387 732.298 959.387C732.917 959.387 733.45 959.118 733.896 958.576C734.344 958.04 734.568 957.271 734.568 956.267C734.568 955.617 734.476 955.059 734.29 954.591C734.102 954.123 733.839 953.76 733.497 953.506C733.154 953.249 732.755 953.122 732.298 953.122C731.829 953.122 731.411 953.249 731.046 953.506C730.68 953.76 730.391 954.129 730.18 954.613C729.97 955.096 729.865 955.672 729.865 956.339ZM729.747 949.032V952.788C730.212 952.307 730.682 951.941 731.163 951.684C731.643 951.43 732.238 951.303 732.948 951.303C733.765 951.303 734.48 951.495 735.097 951.882C735.711 952.271 736.189 952.834 736.529 953.568C736.868 954.303 737.038 955.177 737.038 956.187C737.038 956.933 736.943 957.615 736.754 958.235C736.564 958.858 736.29 959.394 735.93 959.853C735.569 960.308 735.132 960.661 734.619 960.912C734.105 961.16 733.538 961.284 732.92 961.284C732.542 961.284 732.185 961.241 731.852 961.15C731.519 961.061 731.235 960.943 730.999 960.795C730.766 960.648 730.567 960.497 730.402 960.339C730.237 960.184 730.018 959.948 729.747 959.638V959.88C729.747 960.342 729.637 960.692 729.415 960.931C729.194 961.167 728.911 961.284 728.568 961.284C728.22 961.284 727.942 961.167 727.735 960.931C727.528 960.692 727.425 960.342 727.425 959.88V949.138C727.425 948.642 727.525 948.264 727.724 948.01C727.927 947.753 728.208 947.626 728.568 947.626C728.947 947.626 729.238 947.747 729.442 947.989C729.646 948.235 729.747 948.58 729.747 949.032Z" fill="#5A5861"/>
<path fill-rule="evenodd" clip-rule="evenodd" d="M740.227 961.593L740.451 961.043L737.424 953.42C737.238 952.98 737.144 952.661 737.144 952.463C737.144 952.254 737.2 952.059 737.306 951.88C737.415 951.7 737.563 951.554 737.752 951.449C737.943 951.338 738.139 951.282 738.342 951.282C738.697 951.282 738.965 951.397 739.145 951.622C739.326 951.846 739.483 952.168 739.623 952.59L741.703 958.644L743.676 953.014C743.832 952.558 743.974 952.202 744.101 951.941C744.227 951.684 744.36 951.511 744.502 951.421C744.641 951.329 744.842 951.282 745.101 951.282C745.288 951.282 745.465 951.332 745.638 951.433C745.807 951.533 745.94 951.666 746.034 951.834C746.126 952.004 746.174 952.18 746.174 952.366C746.149 952.478 746.111 952.642 746.056 952.853C746 953.06 745.935 953.277 745.858 953.491L742.651 961.891C742.373 962.629 742.104 963.208 741.839 963.627C741.575 964.047 741.225 964.371 740.79 964.596C740.353 964.823 739.766 964.935 739.028 964.935C738.307 964.935 737.767 964.856 737.407 964.702C737.046 964.543 736.866 964.259 736.866 963.843C736.866 963.562 736.952 963.344 737.123 963.19C737.294 963.04 737.548 962.96 737.884 962.96C738.015 962.96 738.145 962.978 738.272 963.016C738.428 963.051 738.563 963.069 738.676 963.069C738.957 963.069 739.181 963.028 739.343 962.942C739.505 962.859 739.651 962.715 739.781 962.505C739.91 962.301 740.058 961.994 740.227 961.593Z" fill="#5A5861"/>
<path fill-rule="evenodd" clip-rule="evenodd" d="M775.859 951.498H776.447V950.758C776.447 949.986 776.541 949.376 776.736 948.92C776.931 948.467 777.266 948.136 777.728 947.929C778.195 947.723 778.834 947.619 779.642 947.619C781.083 947.619 781.799 947.968 781.799 948.678C781.799 948.901 781.725 949.099 781.57 949.258C781.424 949.422 781.245 949.503 781.043 949.503C780.947 949.503 780.777 949.487 780.541 949.444C780.315 949.415 780.111 949.394 779.949 949.394C779.506 949.394 779.224 949.527 779.094 949.787C778.973 950.048 778.908 950.422 778.908 950.909V951.498H779.506C780.445 951.498 780.913 951.777 780.913 952.344C780.913 952.744 780.792 953.001 780.541 953.109C780.293 953.215 779.946 953.273 779.506 953.273H778.908V959.79C778.908 960.274 778.791 960.644 778.555 960.898C778.329 961.154 778.031 961.281 777.663 961.281C777.315 961.281 777.025 961.154 776.792 960.898C776.559 960.644 776.447 960.274 776.447 959.79V953.273H775.767C775.401 953.273 775.121 953.193 774.92 953.025C774.722 952.861 774.622 952.644 774.622 952.381C774.622 951.786 775.035 951.498 775.859 951.498Z" fill="#5A5861"/>
<path fill-rule="evenodd" clip-rule="evenodd" d="M783.912 957.733V959.791C783.912 960.287 783.785 960.662 783.559 960.91C783.323 961.161 783.026 961.282 782.67 961.282C782.307 961.282 782.016 961.158 781.79 960.904C781.564 960.653 781.446 960.281 781.446 959.791V952.94C781.446 951.831 781.845 951.279 782.642 951.279C783.054 951.279 783.348 951.406 783.528 951.666C783.708 951.926 783.81 952.304 783.829 952.813C784.123 952.304 784.421 951.926 784.73 951.666C785.043 951.406 785.455 951.279 785.97 951.279C786.494 951.279 786.99 951.406 787.475 951.666C787.965 951.926 788.207 952.271 788.207 952.698C788.207 952.995 788.104 953.246 787.897 953.435C787.69 953.637 787.469 953.733 787.228 953.733C787.135 953.733 786.914 953.671 786.571 953.563C786.224 953.454 785.917 953.398 785.657 953.398C785.298 953.398 785.003 953.494 784.774 953.68C784.545 953.875 784.365 954.154 784.238 954.523C784.117 954.898 784.03 955.344 783.98 955.855C783.934 956.367 783.912 956.995 783.912 957.733Z" fill="#5A5861"/>
<path fill-rule="evenodd" clip-rule="evenodd" d="M790.407 955.487H794.866C794.807 954.649 794.586 954.017 794.19 953.603C793.794 953.184 793.28 952.977 792.634 952.977C792.022 952.977 791.517 953.184 791.125 953.612C790.732 954.034 790.49 954.661 790.407 955.487ZM795.221 956.887H790.407C790.416 957.442 790.525 957.94 790.744 958.364C790.968 958.789 791.258 959.111 791.621 959.329C791.987 959.545 792.383 959.651 792.826 959.651C793.118 959.651 793.387 959.619 793.629 959.545C793.871 959.48 794.11 959.371 794.338 959.223C794.568 959.078 794.775 958.922 794.967 958.748C795.159 958.582 795.41 958.355 795.717 958.066C795.844 957.959 796.024 957.9 796.254 957.9C796.511 957.9 796.712 957.971 796.871 958.113C797.028 958.252 797.102 958.445 797.102 958.697C797.102 958.922 797.019 959.179 796.848 959.474C796.671 959.775 796.411 960.059 796.056 960.335C795.702 960.605 795.259 960.837 794.73 961.01C794.199 961.193 793.585 961.281 792.897 961.281C791.314 961.281 790.085 960.837 789.211 959.935C788.334 959.031 787.891 957.806 787.891 956.264C787.891 955.538 788.003 954.861 788.222 954.238C788.433 953.615 788.749 953.087 789.167 952.638C789.58 952.192 790.088 951.852 790.695 951.616C791.302 951.38 791.975 951.262 792.716 951.262C793.676 951.262 794.5 951.465 795.188 951.873C795.876 952.274 796.396 952.8 796.733 953.444C797.075 954.088 797.246 954.74 797.246 955.411C797.246 956.025 797.069 956.427 796.715 956.61C796.361 956.796 795.864 956.887 795.221 956.887Z" fill="#5A5861"/>
<path fill-rule="evenodd" clip-rule="evenodd" d="M800.641 955.487H805.103C805.041 954.649 804.812 954.017 804.424 953.603C804.025 953.184 803.51 952.977 802.863 952.977C802.252 952.977 801.75 953.184 801.354 953.612C800.963 954.034 800.719 954.661 800.641 955.487ZM805.453 956.887H800.641C800.647 957.442 800.762 957.94 800.976 958.364C801.199 958.789 801.487 959.111 801.85 959.329C802.215 959.545 802.615 959.651 803.058 959.651C803.349 959.651 803.619 959.619 803.86 959.545C804.105 959.48 804.338 959.371 804.57 959.223C804.802 959.078 805.007 958.922 805.199 958.748C805.388 958.582 805.639 958.355 805.946 958.066C806.076 957.959 806.256 957.9 806.488 957.9C806.742 957.9 806.946 957.971 807.105 958.113C807.262 958.252 807.331 958.445 807.331 958.697C807.331 958.922 807.25 959.179 807.073 959.474C806.903 959.775 806.64 960.059 806.284 960.335C805.936 960.605 805.49 960.837 804.96 961.01C804.431 961.193 803.814 961.281 803.126 961.281C801.543 961.281 800.318 960.837 799.438 959.935C798.564 959.031 798.121 957.806 798.121 956.264C798.121 955.538 798.233 954.861 798.451 954.238C798.667 953.615 798.98 953.087 799.396 952.638C799.81 952.192 800.318 951.852 800.926 951.616C801.531 951.38 802.209 951.262 802.946 951.262C803.904 951.262 804.728 951.465 805.428 951.873C806.11 952.274 806.627 952.8 806.962 953.444C807.306 954.088 807.48 954.74 807.48 955.411C807.48 956.025 807.3 956.427 806.949 956.61C806.594 956.796 806.095 956.887 805.453 956.887Z" fill="#5A5861"/>
<path fill-rule="evenodd" clip-rule="evenodd" d="M815.663 956.239C815.663 955.589 815.563 955.031 815.365 954.566C815.167 954.098 814.892 953.742 814.544 953.494C814.195 953.246 813.803 953.119 813.375 953.119C812.698 953.119 812.125 953.389 811.659 953.919C811.192 954.458 810.959 955.242 810.959 956.286C810.959 957.256 811.189 958.025 811.656 958.569C812.118 959.112 812.686 959.381 813.375 959.381C813.782 959.381 814.163 959.263 814.511 959.029C814.863 958.79 815.143 958.436 815.35 957.96C815.56 957.485 815.663 956.909 815.663 956.239ZM810.841 952.664V952.958C811.303 952.388 811.786 951.97 812.288 951.703C812.781 951.434 813.348 951.297 813.98 951.297C814.733 951.297 815.436 951.496 816.071 951.883C816.709 952.274 817.208 952.844 817.58 953.594C817.949 954.35 818.135 955.236 818.135 956.265C818.135 957.021 818.029 957.718 817.816 958.353C817.603 958.988 817.308 959.515 816.936 959.948C816.561 960.373 816.124 960.707 815.616 960.94C815.102 961.167 814.562 961.282 813.98 961.282C813.277 961.282 812.682 961.144 812.208 960.86C811.733 960.583 811.278 960.163 810.841 959.62V963.314C810.841 964.389 810.448 964.935 809.661 964.935C809.196 964.935 808.895 964.797 808.741 964.519C808.595 964.236 808.52 963.831 808.52 963.294V952.676C808.52 952.208 808.62 951.861 808.824 951.626C809.028 951.397 809.308 951.279 809.661 951.279C810.011 951.279 810.293 951.397 810.51 951.635C810.733 951.877 810.841 952.212 810.841 952.664Z" fill="#5A5861"/>
<path fill-rule="evenodd" clip-rule="evenodd" d="M821.829 952.676V959.79C821.829 960.28 821.711 960.652 821.478 960.903C821.242 961.157 820.946 961.281 820.586 961.281C820.226 961.281 819.936 961.154 819.706 960.899C819.485 960.636 819.369 960.267 819.369 959.79V952.744C819.369 952.263 819.485 951.896 819.706 951.651C819.936 951.4 820.226 951.279 820.586 951.279C820.946 951.279 821.242 951.4 821.478 951.651C821.711 951.896 821.829 952.242 821.829 952.676ZM820.613 950.133C820.267 950.133 819.978 950.027 819.736 949.817C819.489 949.605 819.369 949.312 819.369 948.929C819.369 948.58 819.492 948.294 819.744 948.063C819.991 947.842 820.282 947.727 820.613 947.727C820.935 947.727 821.215 947.827 821.46 948.031C821.705 948.238 821.829 948.536 821.829 948.929C821.829 949.307 821.711 949.602 821.472 949.814C821.23 950.027 820.946 950.133 820.613 950.133Z" fill="#5A5861"/>
<path fill-rule="evenodd" clip-rule="evenodd" d="M829.758 960.159L827.594 956.589L826.256 957.847V959.808C826.256 960.28 826.132 960.644 825.881 960.898C825.639 961.154 825.344 961.281 825.022 961.281C824.644 961.281 824.342 961.157 824.13 960.903C823.914 960.652 823.802 960.28 823.802 959.79V949.295C823.802 948.75 823.911 948.334 824.118 948.049C824.328 947.758 824.635 947.619 825.022 947.619C825.4 947.619 825.698 947.749 825.922 948.009C826.144 948.266 826.256 948.647 826.256 949.149V955.117L829.023 952.214C829.366 951.857 829.624 951.606 829.81 951.476C829.989 951.343 830.204 951.278 830.461 951.278C830.771 951.278 831.025 951.377 831.235 951.572C831.436 951.765 831.539 952.015 831.539 952.304C831.539 952.663 831.204 953.149 830.538 953.748L829.233 954.947L831.756 958.913C831.938 959.211 832.078 959.43 832.156 959.583C832.236 959.734 832.28 959.888 832.28 960.02C832.28 960.413 832.171 960.717 831.96 960.948C831.743 961.172 831.459 961.281 831.117 961.281C830.817 961.281 830.582 961.205 830.42 961.039C830.26 960.877 830.036 960.582 829.758 960.159Z" fill="#5A5861"/>
<path fill-rule="evenodd" clip-rule="evenodd" d="M835.108 961.281C834.734 961.281 834.417 961.163 834.145 960.921C833.876 960.685 833.736 960.348 833.736 959.911C833.736 959.545 833.87 959.229 834.127 958.969C834.387 958.703 834.703 958.57 835.084 958.57C835.462 958.57 835.781 958.703 836.053 958.96C836.318 959.223 836.454 959.542 836.454 959.911C836.454 960.339 836.318 960.679 836.053 960.915C835.781 961.163 835.465 961.281 835.108 961.281Z" fill="#5A5861"/>
<path fill-rule="evenodd" clip-rule="evenodd" d="M847.342 958.237C847.342 958.541 847.251 958.872 847.065 959.22C846.885 959.569 846.604 959.899 846.226 960.215C845.851 960.528 845.379 960.785 844.809 960.977C844.239 961.169 843.592 961.268 842.88 961.268C841.356 961.268 840.169 960.821 839.316 959.938C838.468 959.052 838.04 957.862 838.04 956.373C838.04 955.36 838.235 954.469 838.628 953.692C839.015 952.921 839.582 952.322 840.317 951.896C841.058 951.471 841.944 951.262 842.969 951.262C843.607 951.262 844.188 951.353 844.726 951.542C845.257 951.725 845.703 951.97 846.075 952.26C846.445 952.558 846.728 952.871 846.92 953.202C847.118 953.535 847.212 953.848 847.212 954.138C847.212 954.43 847.106 954.681 846.888 954.885C846.663 955.089 846.397 955.192 846.09 955.192C845.884 955.192 845.715 955.139 845.579 955.036C845.441 954.929 845.29 954.761 845.125 954.522C844.823 954.067 844.51 953.721 844.18 953.497C843.855 953.267 843.438 953.154 842.933 953.154C842.21 953.154 841.622 953.435 841.176 954.005C840.73 954.569 840.509 955.352 840.509 956.332C840.509 956.796 840.568 957.224 840.68 957.611C840.792 957.998 840.958 958.328 841.176 958.603C841.395 958.875 841.655 959.081 841.959 959.223C842.266 959.368 842.606 959.436 842.969 959.436C843.462 959.436 843.884 959.325 844.236 959.093C844.593 958.866 844.903 958.517 845.172 958.048C845.322 957.773 845.482 957.558 845.653 957.401C845.827 957.245 846.043 957.165 846.294 957.165C846.595 957.165 846.846 957.28 847.041 957.507C847.242 957.735 847.342 957.98 847.342 958.237Z" fill="#5A5861"/>
<path fill-rule="evenodd" clip-rule="evenodd" d="M855.488 956.283C855.488 955.279 855.267 954.498 854.827 953.941C854.387 953.377 853.792 953.098 853.049 953.098C852.566 953.098 852.141 953.225 851.775 953.473C851.406 953.721 851.128 954.089 850.93 954.579C850.734 955.066 850.629 955.633 850.629 956.283C850.629 956.927 850.728 957.488 850.924 957.966C851.122 958.449 851.4 958.817 851.763 959.074C852.129 959.325 852.559 959.457 853.049 959.457C853.792 959.457 854.387 959.174 854.827 958.61C855.267 958.049 855.488 957.272 855.488 956.283ZM857.957 956.283C857.957 957.015 857.842 957.69 857.62 958.312C857.387 958.932 857.059 959.463 856.625 959.906C856.194 960.349 855.673 960.692 855.078 960.931C854.468 961.164 853.795 961.285 853.049 961.285C852.305 961.285 851.63 961.164 851.038 960.922C850.443 960.686 849.923 960.34 849.492 959.893C849.055 959.443 848.724 958.914 848.494 958.306C848.278 957.693 848.163 957.021 848.163 956.283C848.163 955.539 848.281 954.855 848.503 954.235C848.733 953.615 849.061 953.088 849.489 952.649C849.917 952.209 850.431 951.874 851.038 951.635C851.645 951.397 852.315 951.279 853.049 951.279C853.792 951.279 854.468 951.397 855.078 951.642C855.683 951.88 856.2 952.224 856.637 952.664C857.071 953.116 857.399 953.643 857.623 954.25C857.845 954.867 857.957 955.542 857.957 956.283Z" fill="#5A5861"/>
<path fill-rule="evenodd" clip-rule="evenodd" d="M867.342 956.466V959.735C867.342 960.252 867.227 960.636 866.99 960.899C866.754 961.155 866.45 961.285 866.063 961.285C865.691 961.285 865.387 961.155 865.163 960.899C864.926 960.636 864.808 960.252 864.808 959.735V955.815C864.808 955.196 864.787 954.712 864.749 954.368C864.705 954.034 864.59 953.748 864.404 953.531C864.218 953.308 863.922 953.2 863.521 953.2C862.714 953.2 862.186 953.473 861.932 954.034C861.678 954.582 861.545 955.372 861.545 956.413V959.735C861.545 960.243 861.43 960.633 861.202 960.896C860.966 961.153 860.665 961.285 860.287 961.285C859.912 961.285 859.608 961.153 859.371 960.896C859.132 960.633 859.014 960.243 859.014 959.735V952.698C859.014 952.23 859.12 951.88 859.333 951.642C859.549 951.397 859.832 951.279 860.175 951.279C860.514 951.279 860.795 951.394 861.022 951.616C861.247 951.843 861.359 952.153 861.359 952.549V952.782C861.787 952.274 862.245 951.899 862.729 951.663C863.216 951.415 863.754 951.297 864.353 951.297C864.971 951.297 865.502 951.421 865.945 951.666C866.388 951.914 866.754 952.289 867.044 952.782C867.46 952.28 867.906 951.908 868.381 951.663C868.857 951.418 869.38 951.297 869.958 951.297C870.629 951.297 871.213 951.434 871.698 951.694C872.182 951.958 872.545 952.339 872.787 952.828C872.997 953.277 873.102 953.975 873.102 954.929V959.735C873.102 960.252 872.985 960.636 872.752 960.899C872.519 961.155 872.206 961.285 871.822 961.285C871.45 961.285 871.146 961.153 870.906 960.896C870.67 960.633 870.552 960.243 870.552 959.735V955.598C870.552 955.065 870.528 954.647 870.484 954.328C870.44 954.009 870.319 953.739 870.121 953.525C869.92 953.308 869.619 953.2 869.217 953.2C868.892 953.2 868.585 953.299 868.293 953.488C868.003 953.677 867.776 953.941 867.611 954.26C867.433 954.675 867.342 955.412 867.342 956.466Z" fill="#5A5861"/>
<path fill-rule="evenodd" clip-rule="evenodd" d="M752.838 955.688C752.836 955.682 752.836 955.679 752.836 955.671C752.836 955.679 752.836 955.682 752.838 955.688Z" fill="#5A5861"/>
<path fill-rule="evenodd" clip-rule="evenodd" d="M752.962 956.474C752.965 956.474 752.965 956.474 752.965 956.474C752.918 956.249 752.882 956.028 752.853 955.809C752.882 956.028 752.918 956.252 752.962 956.474Z" fill="#5A5861"/>
<path fill-rule="evenodd" clip-rule="evenodd" d="M753.775 958.757C753.771 958.748 753.768 958.736 753.76 958.724C753.768 958.736 753.771 958.748 753.775 958.757Z" fill="#5A5861"/>
<path fill-rule="evenodd" clip-rule="evenodd" d="M753.699 958.606C753.679 958.562 753.658 958.52 753.638 958.479C753.658 958.523 753.679 958.562 753.699 958.606Z" fill="#5A5861"/>
<path fill-rule="evenodd" clip-rule="evenodd" d="M753.19 957.354C753.311 957.732 753.457 958.101 753.624 958.452C753.454 958.092 753.311 957.726 753.195 957.354C753.195 957.354 753.193 957.354 753.19 957.354Z" fill="#5A5861"/>
<path fill-rule="evenodd" clip-rule="evenodd" d="M762.361 946.261C762.836 946.261 763.187 946.299 763.589 946.367L763.704 945.645C763.704 945.645 762.594 945.301 761.132 945.422L761.017 945.026C761.471 944.932 761.811 944.527 761.811 944.046C761.811 943.494 761.362 943.048 760.808 943.048C760.256 943.048 759.807 943.494 759.807 944.046C759.807 944.527 760.147 944.932 760.601 945.026L760.728 945.466C759.177 945.679 757.943 946.284 757.943 946.284L758.162 946.952C759.1 946.643 759.913 946.45 760.651 946.37C761.372 946.293 761.918 946.261 762.361 946.261Z" fill="#5A5861"/>
<path fill-rule="evenodd" clip-rule="evenodd" d="M753.757 949.921L753.763 949.915C753.801 949.868 753.836 949.822 753.871 949.778L753.574 949.565L753.112 949.227C753.085 949.261 752.357 949.933 751.783 951.17C751.758 951.132 751.728 951.092 751.696 951.058C751.526 950.869 751.285 950.77 750.978 950.776C750.974 950.776 750.969 950.776 750.965 950.776C750.776 950.776 750.644 950.714 750.559 950.637C750.644 950.528 750.696 950.395 750.696 950.246C750.696 949.896 750.41 949.611 750.059 949.611C749.71 949.611 749.427 949.896 749.427 950.246C749.427 950.596 749.71 950.881 750.059 950.881C750.115 950.881 750.168 950.872 750.218 950.86C750.375 951.033 750.621 951.185 750.984 951.179C751.172 951.176 751.308 951.222 751.399 951.325C751.504 951.442 751.539 951.607 751.551 951.73C751.55 951.734 751.55 951.737 751.547 951.737C751.134 952.865 751.253 954.268 751.253 954.268L752.256 954.309C752.276 953.798 752.35 952.902 752.608 952.192C753.107 950.819 753.733 949.958 753.757 949.921Z" fill="#5A5861"/>
<path fill-rule="evenodd" clip-rule="evenodd" d="M771.087 947.101C770.738 947.101 770.452 947.384 770.452 947.735C770.452 947.789 770.461 947.842 770.475 947.892C770.301 948.049 770.151 948.297 770.154 948.66C770.156 948.849 770.109 948.982 770.009 949.073C769.929 949.147 769.826 949.183 769.728 949.209C768.981 948.161 768.063 947.523 768.063 947.523L767.342 948.297C767.886 948.79 768.441 949.41 768.981 950.184C769.356 950.718 769.74 951.406 770.059 952.094L771.031 951.634C771.031 951.634 770.588 950.538 769.965 949.555C770.071 949.516 770.18 949.457 770.278 949.372C770.467 949.2 770.561 948.958 770.555 948.654C770.552 948.456 770.617 948.323 770.697 948.235C770.803 948.317 770.939 948.37 771.087 948.37C771.438 948.37 771.722 948.084 771.722 947.735C771.722 947.384 771.438 947.101 771.087 947.101Z" fill="#5A5861"/>
<path fill-rule="evenodd" clip-rule="evenodd" d="M768.565 955.83C767.23 956.48 765.03 957.342 762.133 957.745C760.996 957.903 759.895 957.962 758.88 957.962C757.562 957.962 756.396 957.862 755.501 957.751C754.48 957.621 753.682 957.463 753.195 957.354C753.311 957.726 753.453 958.092 753.624 958.452C753.627 958.461 753.632 958.47 753.638 958.479C753.658 958.52 753.679 958.563 753.698 958.606C753.718 958.647 753.739 958.687 753.76 958.724C753.768 958.736 753.771 958.749 753.775 958.758C754.063 959.297 754.409 959.796 754.802 960.224C756.168 961.72 757.559 961.956 757.572 961.959L757.595 961.962L757.616 961.971C757.627 961.972 758.861 962.371 760.737 962.371C762.582 962.371 764.395 962 766.12 961.265C767.398 960.611 768.606 959.616 769.206 958.733C769.669 958.045 770.003 957.315 770.201 956.556C770.307 956.152 770.39 955.505 770.343 954.823C769.965 955.077 769.371 955.437 768.565 955.83Z" fill="#5A5861"/>
<path fill-rule="evenodd" clip-rule="evenodd" d="M758.008 949.54C759.485 949.54 760.679 950.736 760.679 952.212C760.679 953.689 759.485 954.882 758.008 954.882C756.533 954.882 755.337 953.689 755.337 952.212C755.337 950.736 756.533 949.54 758.008 949.54ZM765.826 949.605C766.74 949.605 767.481 950.346 767.481 951.259C767.481 952.171 766.74 952.915 765.826 952.915C764.915 952.915 764.172 952.171 764.172 951.259C764.172 950.346 764.915 949.605 765.826 949.605ZM754.187 950.24C754.149 950.296 753.568 951.117 753.112 952.375C752.767 953.32 752.783 954.693 752.783 954.708V954.711C752.783 955.036 752.8 955.355 752.836 955.671C752.836 955.679 752.836 955.682 752.838 955.688C752.842 955.73 752.848 955.768 752.853 955.809C752.882 956.028 752.918 956.249 752.965 956.474C753.63 956.642 757.593 957.566 762.022 956.949C764.8 956.562 766.908 955.744 768.187 955.121C769.253 954.607 769.935 954.141 770.201 953.949C769.935 952.971 769.21 951.442 768.547 950.488C766.645 947.771 764.593 947.074 763.539 946.9C763.137 946.835 762.814 946.795 762.361 946.795C761.934 946.795 761.41 946.832 760.707 946.906C760.002 946.977 759.216 947.163 758.304 947.47C757.026 947.898 755.87 948.568 754.958 949.413L754.928 949.442C754.793 949.566 754.512 949.826 754.187 950.24Z" fill="#5A5861"/>
<path fill-rule="evenodd" clip-rule="evenodd" d="M699.089 887.289L675.203 883.552L686.413 863.389L699.089 887.289Z" fill="#5D6BDE"/>
<path fill-rule="evenodd" clip-rule="evenodd" d="M675.203 883.552L681.482 903.88L699.089 887.289L675.203 883.552Z" fill="#4D52D0"/>
<path fill-rule="evenodd" clip-rule="evenodd" d="M811.222 837.814L758.433 786.101L810.425 886.646L811.222 837.814Z" fill="#2187E6"/>
<path fill-rule="evenodd" clip-rule="evenodd" d="M810.425 886.646L764.876 851.932L758.433 786.101" fill="#3BA0FD"/>
<path fill-rule="evenodd" clip-rule="evenodd" d="M986.021 850.049L982.799 828.315L968.153 850.002L986.021 850.049Z" fill="#4D52D0"/>
<path fill-rule="evenodd" clip-rule="evenodd" d="M968.153 850.002V837.014L982.799 828.315" fill="#5D6BDE"/>
<path fill-rule="evenodd" clip-rule="evenodd" d="M994.587 754.559L919.398 767.509L995.873 816.595L994.587 754.559Z" fill="#F1C162"/>
<path fill-rule="evenodd" clip-rule="evenodd" d="M995.873 816.595L950.784 817.646L919.398 767.509" fill="#FFE141"/>
<path fill-rule="evenodd" clip-rule="evenodd" d="M680.02 908.742L530.108 881.033L562.072 908.891L680.02 908.742Z" fill="#FFE141"/>
<path fill-rule="evenodd" clip-rule="evenodd" d="M680.02 908.742L593.553 883.566L530.108 881.033L680.02 908.742Z" fill="#FFC341"/>
<path fill-rule="evenodd" clip-rule="evenodd" d="M1049.21 698.786L1138.94 981.408V555.902L1049.21 698.786Z" fill="#5D6BDE"/>
<path fill-rule="evenodd" clip-rule="evenodd" d="M1049.21 698.786L1025.54 836.374L1138.94 981.408L1049.21 698.786Z" fill="#4D52D0"/>
<path fill-rule="evenodd" clip-rule="evenodd" d="M1025.54 836.375L1138.94 981.408L1004.61 871.488L1025.54 836.375Z" fill="#3BA0FD"/>
<path fill-rule="evenodd" clip-rule="evenodd" d="M1004.61 871.488L952.791 866.586L899.981 862.763L1138.94 981.409L1004.61 871.488Z" fill="#2187E6"/>
<path fill-rule="evenodd" clip-rule="evenodd" d="M899.981 862.763L1138.94 981.409L847.342 879.228L899.981 862.763Z" fill="#FFE141"/>
<path fill-rule="evenodd" clip-rule="evenodd" d="M847.342 879.228L823.802 917.846L1138.94 981.408L847.342 879.228Z" fill="#F1C162"/>
<path fill-rule="evenodd" clip-rule="evenodd" d="M749.427 893.06L802.8 981.408H1138.94L823.802 917.845L749.427 893.06Z" fill="#5D6BDE"/>
<mask id="mask0_1188_15182" style="mask-type:alpha" maskUnits="userSpaceOnUse" x="383" y="893" width="420" height="89">
<path d="M383 893.06H802.8V981.408H383V893.06Z" fill="#7A62F1"/>
</mask>
<g mask="url(#mask0_1188_15182)">
<path fill-rule="evenodd" clip-rule="evenodd" d="M749.427 893.06L667.11 931.51L802.8 981.408L749.427 893.06Z" fill="#4D52D0"/>
<path fill-rule="evenodd" clip-rule="evenodd" d="M538.726 943.048L802.8 981.408H382.909L538.726 943.048Z" fill="#4D52D0"/>
</g>
<path fill-rule="evenodd" clip-rule="evenodd" d="M538.726 943.049L667.11 931.51L802.8 981.408L538.726 943.049Z" fill="#5D6BDE"/>
</g>
<defs>
<clipPath id="clip0_1188_15182">
<rect width="1139" height="982" fill="white"/>
</clipPath>
</defs>
</svg>
