<svg width="240" height="240" viewBox="0 0 240 240" fill="none" xmlns="http://www.w3.org/2000/svg">
<path d="M120.342 29C115.17 37.5881 109.472 45.9344 103.963 54.3093C102.432 56.6363 101.006 59.0389 99.423 61.3309C98.9501 62.0157 98.375 63.3846 97.617 63.7696C96.9848 64.0907 95.8906 63.5189 95.2149 63.4528C92.7756 63.2139 90.3021 62.5834 87.835 62.7523C81.1641 63.2091 73.7162 66.0231 69.2605 71.1708C67.7606 72.9036 66.8471 75.0932 65.871 77.145L74.6566 76.8004L82.2122 77.8179L88.7135 77.8478C88.259 78.5858 87.7654 79.6279 87.0636 80.1584C85.9721 80.9834 83.555 81.06 82.2122 81.4033C79.9977 81.9697 77.6634 83.0007 75.7109 84.1891C69.0222 88.2603 65.3966 95.3223 64.6709 102.975C64.5093 104.68 64.8168 106.519 64.8168 108.246L72.8995 102.096L62.0054 119.14H110.326C111.143 112.683 112.739 105.989 114.172 99.6361C114.792 96.8853 115.529 93.9732 118.936 95.2433L118.73 99.8118L118.226 115.274L116.777 140.928L113.84 153.931H127.019C125.833 149.755 124.527 145.626 124.062 141.28C123.173 132.972 122.998 124.495 122.633 116.153C122.538 113.997 122.801 111.801 122.596 109.652C122.249 106 122.1 102.252 122.099 98.5818C122.098 97.5245 121.447 95.5871 122.636 95.0068C125.436 93.6397 126.245 97.8557 126.646 99.6361C128.098 106.072 129.324 112.651 130.533 119.14H178.854L171.013 107.016L167.959 102.096L176.042 108.246C176.042 106.063 176.273 103.734 175.991 101.569C175.063 94.4269 171.309 88.0321 165.119 84.2272C163.191 83.0424 161.001 82.0807 158.822 81.4666C155.828 80.6223 153.826 80.733 152.145 77.8478L158.647 77.8179L166.202 76.8004L174.812 77.145C172.672 68.1396 161.29 63.1126 152.848 62.7435C150.429 62.6377 148.037 63.226 145.644 63.4526C144.926 63.5206 143.708 64.1281 143.074 63.6772C142.319 63.1394 141.816 61.9291 141.302 61.1709C139.927 59.1474 138.679 57.0393 137.321 55.0053C133.328 49.0199 129.536 42.9019 125.557 36.907C123.869 34.3635 122.452 31.2059 120.342 29Z" fill="#321B70"/>
<path d="M120.341 81.5377C122.075 78.6358 123.038 75.0428 124.183 71.8735C126.516 65.411 129.622 58.8208 126.828 52.0181C125.826 49.5806 124.252 47.5016 122.551 45.5168C122.071 44.9575 121.185 43.7226 120.341 43.7803C119.614 43.8301 118.881 44.8506 118.424 45.3411C116.86 47.0203 115.51 48.9099 114.483 50.9638C109.419 61.0913 117.565 71.8978 120.341 81.5377Z" fill="white"/>
<path d="M69.7368 74.5094C72.217 74.5025 74.63 74.2542 77.1167 74.5596C79.8543 74.8959 82.6042 75.7343 85.3751 75.7343C88.6892 75.7343 91.7814 74.3075 95.0393 74.1648C102.939 73.819 109.516 77.3575 115.773 81.7136C110.544 68.4459 93.0065 62.0251 80.1038 66.8793C76.0751 68.3951 72.0462 70.7678 69.7368 74.5094Z" fill="white"/>
<path d="M124.91 81.8893C131.267 77.429 137.743 73.8111 145.82 74.1648C149.076 74.3075 152.173 75.7343 155.484 75.7343C158.255 75.7343 161.005 74.896 163.742 74.5597C166.171 74.2615 168.525 74.4894 170.947 74.5094C169.167 70.2795 163.318 67.5706 159.174 66.3522C145.921 62.4553 130.666 69.2254 124.91 81.8893Z" fill="white"/>
<path d="M67.1008 103.15C69.08 101.918 70.8217 100.371 72.8993 99.2743C76.5801 97.3311 80.5403 96.1031 84.1449 93.9886C87.6545 91.9297 90.5864 88.9873 94.1604 87.0638C98.9487 84.4866 104.541 84.2371 109.799 85.2277C108.603 84.2339 106.554 83.7393 105.055 83.3961C101.94 82.6831 98.9519 82.0649 95.7418 82.0649C84.566 82.0649 71.9264 85.3439 68.2048 97.3518C67.6287 99.2111 67.1848 101.196 67.1008 103.15Z" fill="white"/>
<path d="M131.06 85.0517V85.2274C136.426 84.1867 142.206 84.5253 147.05 87.2603C150.228 89.0548 152.877 91.6913 156.011 93.5783C159.507 95.6828 163.295 96.9007 166.905 98.7333C169.362 99.9805 171.399 101.793 173.758 103.15C172.943 98.7618 172.217 94.7842 169.386 91.134C161.03 80.3625 142.614 79.9048 131.06 85.0517Z" fill="white"/>
<path d="M54.2739 131.088H92.9305H103.122L106.873 130.908L107.794 128.453L109.447 122.479H74.1293H64.1138L59.9628 122.584L58.193 124.941L54.2739 131.088Z" fill="#321B70"/>
<path d="M131.412 122.479L133.153 128.804L133.947 130.908L137.737 131.088H147.929H186.409L181.138 122.479H131.412Z" fill="#321B70"/>
<path d="M46.5427 143.037H101.892L105.933 134.427H67.8038H56.9097L52.2111 134.533L50.3609 137.047L46.5427 143.037Z" fill="#321B70"/>
<path d="M134.926 134.427L137.809 140.928L139.2 142.931L143.887 143.037H155.132H194.14L190.266 136.711L188.625 134.533L184.125 134.427H173.231H134.926Z" fill="#321B70"/>
<path d="M39.5142 153.931H76.2379H87.3077L92.5722 153.841L94.8984 151.893L99.6075 146.375H60.4238H49.1783L44.4715 146.481L42.9369 148.487L39.5142 153.931Z" fill="#321B70"/>
<path d="M141.251 146.375L145.35 151.331L148.12 153.828L153.024 153.931H163.918H201.169L197.698 148.241L196.358 146.481L192.911 146.375H184.828H141.251Z" fill="#321B70"/>
<path d="M36 166.582V167.461C38.0317 167.477 40.7224 168.025 41.3804 170.272C42.198 173.064 41.7985 176.359 41.7985 179.233V195.574C41.7985 198.689 42.4778 202.998 41.2707 205.934C40.3973 208.059 37.9508 208.155 36 208.401V209.28H53.9226V208.401C52.3933 208.28 50.4381 208.194 49.2607 207.089C48.2139 206.107 48.1246 204.471 48.1241 203.13V195.75C48.1241 194.188 47.2733 188.981 49.8743 188.981C50.4636 188.981 50.9813 189.717 51.3571 190.092L54.4849 193.185C57.6008 196.3 60.7439 199.378 63.4066 202.904C64.1193 203.848 65.8221 205.683 65.4059 206.996C64.9304 208.493 62.2097 208.375 60.951 208.401V209.28H80.455V208.401C76.5623 208.321 73.9762 205.219 71.5219 202.603C67.9605 198.805 64.2962 195.061 60.843 191.166C59.2184 189.334 57.2017 186.285 54.9768 185.207C55.9874 183.121 58.6146 181.423 60.2484 179.796C64.8378 175.224 70.1975 167.48 77.2922 167.461V166.582H60.5996V167.461C61.3069 167.461 62.0094 167.442 62.7082 167.569C66.8405 168.319 64.2057 171.96 62.502 173.793C58.2453 178.375 53.2327 183.356 48.1241 186.965V174.84C48.1241 173.134 47.7999 170.906 48.7791 169.394C49.8668 167.713 52.2722 167.462 54.0983 167.461V166.582H36Z" fill="#321B70"/>
<path d="M102.771 166.582V167.461C104.938 167.461 107.643 167.674 108.64 169.921C109.77 172.465 109.272 175.985 109.272 178.706V196.629C109.272 199.465 109.859 203.308 108.656 205.941C107.63 208.189 104.95 208.356 102.771 208.401V209.28H121.923V208.401C119.548 208.352 116.805 208.117 115.811 205.59C114.943 203.386 115.597 199.864 115.597 197.507V179.233C115.597 176.579 114.85 172.566 115.864 170.096C116.856 167.682 119.652 167.461 121.923 167.461V166.582H102.771Z" fill="#321B70"/>
<path d="M144.59 166.582V167.461C148.681 167.648 150.212 172.097 151.346 175.368C154.197 183.595 157.238 191.839 160.348 199.967C161.321 202.512 162.079 205.147 163.04 207.699C163.244 208.243 163.475 210.046 164.255 210.046C164.962 210.046 165.241 208.38 165.423 207.874C166.288 205.472 167.135 203.057 168.04 200.67C168.9 198.405 169.773 196.124 170.521 193.817C171.767 189.972 173.404 186.251 174.637 182.396H174.812C176.207 186.24 177.868 189.985 179.298 193.817C180.83 197.921 182.382 202.012 183.909 206.117C184.2 206.897 184.745 209.763 185.581 210.027C186.357 210.271 186.653 208.171 186.828 207.699C187.855 204.929 188.531 202.03 189.572 199.264C192.574 191.287 195.073 183.106 198.256 175.192C199.655 171.716 200.399 167.85 204.859 167.461V166.582H192.032V167.461C193.79 167.475 196.237 168.023 196.563 170.096C196.923 172.386 195.724 174.862 194.968 176.949C193.333 181.462 191.535 185.933 189.988 190.479C189.312 192.464 188.633 196.061 187.112 197.507C186.671 195.033 185.221 192.462 184.287 190.127C182.704 186.169 181.317 182.129 179.712 178.179C178.805 175.946 176.574 172.366 176.819 169.921C177.059 167.526 180.057 167.461 181.841 167.461V166.582H164.797V167.461C168.944 167.463 170.012 170.66 171.425 173.962C172.017 175.346 173.195 177.197 173.301 178.706C173.401 180.123 172.125 182.316 171.59 183.626C170.311 186.756 169.237 189.967 168.004 193.114C167.475 194.466 167.127 196.342 166.027 197.332C165.643 195.077 164.44 192.965 163.662 190.83C161.796 185.706 159.594 180.692 157.804 175.543C156.899 172.943 154.274 168.487 158.471 167.578C159.052 167.453 159.637 167.461 160.228 167.461V166.582H144.59Z" fill="#321B70"/>
</svg>
