<svg width="720" height="720" viewBox="0 0 720 720" fill="none" xmlns="http://www.w3.org/2000/svg">
<path d="M359.781 43C341.661 73.0914 321.695 102.336 302.391 131.68C297.028 139.834 292.03 148.252 286.485 156.283C284.828 158.682 282.813 163.479 280.157 164.828C277.942 165.953 274.108 163.949 271.74 163.718C263.194 162.881 254.527 160.672 245.882 161.263C222.508 162.864 196.412 172.724 180.8 190.761C175.545 196.832 172.344 204.504 168.924 211.693L199.707 210.486L226.181 214.051L248.961 214.156C247.368 216.742 245.638 220.393 243.179 222.252C239.355 225.143 230.886 225.411 226.181 226.614C218.422 228.598 210.242 232.211 203.401 236.375C179.965 250.64 167.261 275.384 164.719 302.197C164.152 308.171 165.23 314.615 165.23 320.667L193.55 299.118L155.379 358.838H324.688C327.55 336.214 333.144 312.76 338.164 290.499C340.337 280.861 342.917 270.657 354.856 275.107L354.135 291.115L352.369 345.294L347.292 435.181L337.001 480.741H383.176C379.023 466.109 374.448 451.642 372.817 436.413C369.701 407.304 369.089 377.602 367.809 348.372C367.478 340.816 368.397 333.123 367.68 325.592C366.463 312.798 365.943 299.664 365.938 286.805C365.936 283.1 363.655 276.312 367.821 274.279C377.632 269.489 380.465 284.261 381.871 290.499C386.957 313.05 391.253 336.102 395.49 358.838H564.799L537.327 316.357L526.627 299.118L554.948 320.667C554.948 313.018 555.756 304.858 554.77 297.271C551.518 272.247 538.364 249.84 516.674 236.508C509.921 232.357 502.246 228.987 494.613 226.836C484.119 223.877 477.105 224.265 471.217 214.156L493.997 214.051L520.471 210.486L550.638 211.693C543.14 180.14 503.259 162.526 473.68 161.232C465.203 160.862 456.821 162.923 448.437 163.717C445.921 163.956 441.652 166.084 439.434 164.504C436.787 162.62 435.026 158.379 433.222 155.722C428.406 148.632 424.031 141.246 419.276 134.119C405.282 113.147 391.998 91.7104 378.055 70.7051C372.14 61.7931 367.177 50.7292 359.781 43Z" fill="#321B70"/>
<path d="M359.781 227.085C365.855 216.917 369.23 204.328 373.24 193.223C381.416 170.58 392.298 147.488 382.507 123.653C378.999 115.112 373.484 107.828 367.521 100.873C365.841 98.9134 362.735 94.5863 359.781 94.7886C357.231 94.9632 354.664 98.5387 353.064 100.257C347.582 106.141 342.852 112.762 339.254 119.959C321.511 155.444 350.054 193.308 359.781 227.085Z" fill="white"/>
<path d="M182.468 202.458C191.158 202.434 199.613 201.564 208.326 202.634C217.918 203.813 227.554 206.75 237.263 206.75C248.875 206.75 259.709 201.751 271.125 201.251C298.803 200.039 321.848 212.438 343.774 227.701C325.45 181.213 264.002 158.715 218.793 175.723C204.677 181.035 190.56 189.348 182.468 202.458Z" fill="white"/>
<path d="M375.788 228.316C398.061 212.688 420.751 200.011 449.053 201.251C460.46 201.751 471.312 206.75 482.915 206.75C492.624 206.75 502.259 203.813 511.851 202.634C520.359 201.589 528.608 202.388 537.093 202.458C530.859 187.637 510.362 178.145 495.844 173.876C449.409 160.222 395.957 183.944 375.788 228.316Z" fill="white"/>
<path d="M173.233 302.812C180.168 298.494 186.27 293.075 193.55 289.231C206.447 282.423 220.323 278.12 232.953 270.711C245.25 263.497 255.523 253.187 268.046 246.447C284.824 237.417 304.418 236.543 322.84 240.014C318.651 236.532 311.472 234.799 306.217 233.596C295.305 231.098 284.835 228.932 273.587 228.932C234.429 228.932 190.141 240.421 177.101 282.495C175.082 289.01 173.527 295.964 173.233 302.812Z" fill="white"/>
<path d="M397.337 239.398V240.014C416.139 236.367 436.392 237.553 453.363 247.136C464.497 253.424 473.78 262.662 484.762 269.274C497.009 276.648 510.285 280.915 522.933 287.336C531.54 291.706 538.678 298.057 546.944 302.812C544.088 287.436 541.545 273.499 531.624 260.709C502.349 222.968 437.82 221.364 397.337 239.398Z" fill="white"/>
<path d="M128.289 400.704H263.736H299.445L312.588 400.071L315.818 391.469L321.609 370.536H197.86H162.767L148.222 370.907L142.021 379.165L128.289 400.704Z" fill="#321B70"/>
<path d="M398.568 370.536L404.67 392.7L407.452 400.071L420.732 400.704H456.441H591.273L572.803 370.536H398.568Z" fill="#321B70"/>
<path d="M101.2 442.569H295.135L309.296 412.401H175.696H137.524L121.061 412.773L114.578 421.582L101.2 442.569Z" fill="#321B70"/>
<path d="M410.881 412.401L420.985 435.181L425.858 442.198L442.28 442.569H481.683H618.362L604.788 420.406L599.036 412.773L583.269 412.401H545.097H410.881Z" fill="#321B70"/>
<path d="M76.5728 480.74H205.248H244.035L262.481 480.426L270.632 473.599L287.132 454.267H149.837H110.435L93.9426 454.638L88.5655 461.664L76.5728 480.74Z" fill="#321B70"/>
<path d="M433.046 454.267L447.407 471.628L457.112 480.378L474.296 480.74H512.467H642.989L630.827 460.802L626.133 454.638L614.053 454.267H585.732H433.046Z" fill="#321B70"/>
<path d="M64.2598 525.069V528.147C71.3785 528.206 80.8064 530.125 83.1118 537.998C85.9766 547.781 84.5768 559.325 84.5768 569.397V626.654C84.5768 637.566 86.9571 652.667 82.7274 662.954C79.6673 670.398 71.095 670.736 64.2598 671.598V674.676H127.058V671.598C121.7 671.173 114.849 670.872 110.723 666.999C107.056 663.557 106.743 657.826 106.741 653.128V627.27C106.741 621.797 103.76 603.552 112.873 603.552C114.938 603.552 116.752 606.13 118.069 607.445L129.028 618.281C139.946 629.198 150.959 639.981 160.289 652.337C162.786 655.644 168.752 662.074 167.294 666.673C165.628 671.918 156.095 671.506 151.685 671.598V674.676H220.024V671.598C206.385 671.315 197.323 660.448 188.723 651.281C176.245 637.974 163.406 624.854 151.306 611.208C145.614 604.788 138.548 594.104 130.752 590.33C134.293 583.017 143.498 577.069 149.223 571.367C165.303 555.351 184.083 528.216 208.942 528.147V525.069H150.453V528.147C152.932 528.147 155.393 528.082 157.841 528.526C172.321 531.155 163.089 543.911 157.119 550.335C142.204 566.388 124.641 583.842 106.741 596.486V554.005C106.741 548.025 105.605 540.22 109.036 534.92C112.847 529.032 121.275 528.152 127.674 528.147V525.069H64.2598Z" fill="#321B70"/>
<path d="M298.214 525.069V528.147C305.808 528.147 315.285 528.893 318.78 536.767C322.738 545.681 320.994 558.016 320.994 567.55V630.348C320.994 640.286 323.051 653.75 318.836 662.979C315.24 670.853 305.849 671.438 298.214 671.598V674.676H365.322V671.598C357 671.426 347.39 670.601 343.905 661.747C340.865 654.026 343.158 641.683 343.158 633.427V569.397C343.158 560.099 340.538 546.034 344.093 537.383C347.568 528.924 357.365 528.147 365.322 528.147V525.069H298.214Z" fill="#321B70"/>
<path d="M444.743 525.069V528.147C459.078 528.803 464.443 544.392 468.415 555.852C478.406 584.679 489.06 613.565 499.957 642.046C503.368 650.964 506.024 660.196 509.388 669.135C510.106 671.044 510.915 677.361 513.648 677.361C516.124 677.361 517.101 671.524 517.74 669.751C520.77 661.335 523.737 652.873 526.91 644.509C529.922 636.571 532.981 628.581 535.601 620.498C539.968 607.022 545.704 593.986 550.023 580.479H550.638C555.524 593.949 561.343 607.07 566.356 620.498C571.723 634.876 577.161 649.21 582.513 663.594C583.53 666.328 585.442 676.37 588.372 677.293C591.088 678.149 592.128 670.792 592.741 669.135C596.338 659.432 598.708 649.274 602.354 639.583C612.872 611.633 621.629 582.966 632.783 555.237C637.683 543.057 640.291 529.512 655.918 528.147V525.069H610.974V528.147C617.135 528.198 625.707 530.118 626.849 537.382C628.112 545.405 623.911 554.081 621.262 561.393C615.532 577.205 609.231 592.873 603.811 608.8C601.444 615.756 599.064 628.358 593.735 633.427C592.19 624.758 587.109 615.75 583.836 607.569C578.29 593.7 573.429 579.544 567.807 565.703C564.629 557.879 556.812 545.337 557.671 536.767C558.511 528.377 569.015 528.147 575.265 528.147V525.069H515.545V528.147C530.076 528.157 533.818 539.359 538.768 550.927C540.844 555.777 544.971 562.261 545.344 567.55C545.693 572.516 541.223 580.199 539.348 584.789C534.868 595.755 531.102 607.006 526.782 618.035C524.928 622.771 523.71 629.345 519.855 632.811C518.512 624.91 514.295 617.511 511.57 610.031C505.031 592.078 497.316 574.508 491.043 556.468C487.874 547.357 478.676 531.745 493.381 528.56C495.417 528.119 497.467 528.148 499.538 528.147V525.069H444.743Z" fill="#321B70"/>
</svg>
