<svg width="480" height="480" viewBox="0 0 480 480" fill="none" xmlns="http://www.w3.org/2000/svg">
<path d="M312.875 244.684C313.606 244.684 314.262 244.573 314.838 244.351C315.414 244.129 315.897 243.818 316.29 243.416C316.684 243.015 316.988 242.529 317.199 241.957C317.41 241.385 317.513 240.745 317.513 240.036V228.948H321.294V240.036C321.294 241.137 321.102 242.153 320.713 243.088C320.324 244.023 319.766 244.829 319.04 245.508C318.314 246.187 317.429 246.716 316.389 247.095C315.349 247.475 314.178 247.668 312.875 247.668C311.564 247.668 310.388 247.475 309.347 247.095C308.307 246.716 307.427 246.187 306.701 245.508C305.974 244.829 305.417 244.023 305.028 243.088C304.639 242.153 304.443 241.137 304.443 240.036V228.948H308.223V240.024C308.223 240.732 308.331 241.372 308.542 241.944C308.753 242.516 309.057 243.002 309.455 243.408C309.853 243.813 310.341 244.129 310.917 244.351C311.493 244.573 312.144 244.684 312.875 244.684ZM342.698 228.948V247.463H340.759C340.459 247.463 340.211 247.416 340.009 247.326C339.808 247.236 339.611 247.087 339.424 246.874L328.813 234.53C328.869 235.094 328.897 235.614 328.897 236.092V247.463H325.566V228.948H327.548C327.707 228.948 327.848 228.952 327.965 228.965C328.082 228.977 328.185 229.003 328.274 229.042C328.363 229.08 328.447 229.135 328.532 229.208C328.616 229.281 328.71 229.379 328.813 229.498L339.466 241.893C339.438 241.594 339.414 241.3 339.396 241.009C339.377 240.719 339.368 240.45 339.368 240.203V228.948H342.698ZM361.419 231.777H355.291V247.463H351.511V231.777H345.383V228.948H361.419V231.777ZM372.269 244.684C373 244.684 373.655 244.573 374.231 244.351C374.808 244.129 375.29 243.818 375.684 243.416C376.077 243.015 376.382 242.529 376.593 241.957C376.803 241.385 376.907 240.745 376.907 240.036V228.948H380.687V240.036C380.687 241.137 380.495 242.153 380.106 243.088C379.717 244.023 379.16 244.829 378.434 245.508C377.708 246.187 376.822 246.716 375.782 247.095C374.742 247.475 373.571 247.668 372.269 247.668C370.957 247.668 369.781 247.475 368.741 247.095C367.701 246.716 366.82 246.187 366.094 245.508C365.368 244.829 364.81 244.023 364.422 243.088C364.033 242.153 363.836 241.137 363.836 240.036V228.948H367.617V240.024C367.617 240.732 367.724 241.372 367.935 241.944C368.146 242.516 368.451 243.002 368.849 243.408C369.247 243.813 369.734 244.129 370.31 244.351C370.887 244.573 371.538 244.684 372.269 244.684ZM388.74 236.707H389.626C389.982 236.707 390.277 236.66 390.511 236.57C390.745 236.481 390.947 236.34 391.115 236.144L396.723 229.678C396.957 229.404 397.206 229.212 397.463 229.106C397.721 228.999 398.044 228.948 398.438 228.948H401.698L394.854 236.643C394.451 237.112 394.034 237.445 393.603 237.642C393.912 237.744 394.193 237.885 394.442 238.069C394.69 238.252 394.924 238.495 395.149 238.794L402.204 247.463H398.873C398.424 247.463 398.091 247.403 397.871 247.288C397.651 247.172 397.463 247.006 397.313 246.784L391.565 239.947C391.387 239.716 391.181 239.554 390.947 239.46C390.713 239.366 390.375 239.319 389.935 239.319H388.74V247.463H384.96V228.948H388.74V236.707ZM308.49 278.193H304.696V259.678H308.49V278.193ZM330.162 259.678V278.193H328.222C327.923 278.193 327.674 278.146 327.473 278.056C327.271 277.967 327.075 277.817 326.887 277.604L316.276 265.26C316.332 265.824 316.361 266.345 316.361 266.823V278.193H313.03V259.678H315.011C315.171 259.678 315.311 259.682 315.428 259.695C315.545 259.708 315.648 259.733 315.737 259.772C315.826 259.81 315.911 259.866 315.995 259.938C316.08 260.011 316.173 260.109 316.276 260.228L326.929 272.623C326.901 272.324 326.878 272.03 326.859 271.74C326.84 271.449 326.831 271.18 326.831 270.933V259.678H330.162ZM352.733 268.935C352.733 270.293 352.485 271.539 351.988 272.674C351.492 273.809 350.794 274.787 349.894 275.606C348.995 276.426 347.912 277.062 346.647 277.514C345.383 277.967 343.977 278.193 342.431 278.193H334.687V259.678H342.431C343.977 259.678 345.383 259.904 346.647 260.361C347.912 260.817 348.995 261.453 349.894 262.269C350.794 263.084 351.492 264.061 351.988 265.196C352.485 266.332 352.733 267.578 352.733 268.935ZM348.854 268.935C348.854 267.919 348.709 267.006 348.414 266.199C348.119 265.393 347.692 264.71 347.135 264.151C346.577 263.592 345.903 263.165 345.111 262.866C344.319 262.567 343.425 262.418 342.431 262.418H338.482V275.453H342.431C343.425 275.453 344.319 275.303 345.111 275.005C345.903 274.706 346.577 274.275 347.135 273.715C347.692 273.156 348.119 272.474 348.414 271.667C348.709 270.86 348.854 269.951 348.854 268.935ZM375.445 268.935C375.445 270.293 375.201 271.547 374.709 272.704C374.217 273.861 373.519 274.864 372.62 275.709C371.72 276.554 370.638 277.211 369.373 277.685C368.108 278.159 366.703 278.398 365.157 278.398C363.621 278.398 362.22 278.159 360.955 277.685C359.69 277.211 358.608 276.554 357.703 275.709C356.799 274.864 356.097 273.861 355.6 272.704C355.104 271.547 354.855 270.293 354.855 268.935C354.855 267.578 355.104 266.319 355.6 265.162C356.097 264.006 356.799 263.007 357.703 262.162C358.608 261.317 359.69 260.655 360.955 260.181C362.22 259.708 363.621 259.473 365.157 259.473C366.188 259.473 367.157 259.58 368.066 259.797C368.975 260.015 369.809 260.322 370.568 260.719C371.327 261.116 372.011 261.598 372.615 262.166C373.219 262.734 373.73 263.37 374.152 264.07C374.573 264.77 374.897 265.53 375.117 266.349C375.337 267.168 375.445 268.03 375.445 268.935ZM371.58 268.935C371.58 267.919 371.43 267.006 371.13 266.199C370.83 265.393 370.404 264.71 369.851 264.146C369.298 263.583 368.629 263.152 367.837 262.853C367.045 262.555 366.15 262.405 365.157 262.405C364.164 262.405 363.274 262.555 362.482 262.853C361.69 263.152 361.016 263.583 360.458 264.146C359.901 264.71 359.47 265.393 359.17 266.199C358.87 267.006 358.72 267.919 358.72 268.935C358.72 269.951 358.87 270.86 359.17 271.667C359.47 272.474 359.901 273.156 360.458 273.715C361.016 274.275 361.69 274.706 362.482 275.005C363.274 275.303 364.164 275.453 365.157 275.453C366.15 275.453 367.045 275.303 367.837 275.005C368.629 274.706 369.298 274.275 369.851 273.715C370.404 273.156 370.83 272.474 371.13 271.667C371.43 270.86 371.58 269.951 371.58 268.935ZM395.908 259.678V278.193H393.968C393.668 278.193 393.42 278.146 393.219 278.056C393.017 277.967 392.821 277.817 392.633 277.604L382.022 265.26C382.078 265.824 382.107 266.345 382.107 266.823V278.193H378.776V259.678H380.757C380.916 259.678 381.057 259.682 381.174 259.695C381.291 259.708 381.394 259.733 381.483 259.772C381.572 259.81 381.657 259.866 381.741 259.938C381.825 260.011 381.919 260.109 382.022 260.228L392.675 272.623C392.647 272.324 392.624 272.03 392.605 271.74C392.586 271.449 392.577 271.18 392.577 270.933V259.678H395.908ZM404.228 262.418V267.552H411.339V270.203H404.228V275.44H413.251V278.193H400.433V259.678H413.251V262.418H404.228ZM427.418 263.045C427.305 263.225 427.188 263.353 427.061 263.434C426.935 263.515 426.776 263.557 426.588 263.557C426.391 263.557 426.181 263.489 425.951 263.357C425.722 263.225 425.445 263.079 425.127 262.917C424.808 262.755 424.438 262.606 424.012 262.473C423.585 262.341 423.08 262.277 422.499 262.277C421.974 262.277 421.515 262.333 421.121 262.448C420.728 262.563 420.4 262.725 420.133 262.93C419.866 263.135 419.664 263.378 419.533 263.664C419.402 263.95 419.336 264.266 419.336 264.608C419.336 265.043 419.472 265.405 419.739 265.696C420.006 265.986 420.358 266.234 420.798 266.438C421.238 266.643 421.74 266.827 422.302 266.989C422.864 267.151 423.44 267.322 424.031 267.505C424.621 267.689 425.197 267.902 425.759 268.146C426.321 268.389 426.823 268.696 427.263 269.068C427.704 269.439 428.059 269.896 428.326 270.433C428.593 270.971 428.724 271.624 428.724 272.392C428.724 273.229 428.57 274.01 428.256 274.74C427.942 275.47 427.483 276.106 426.879 276.648C426.274 277.19 425.534 277.617 424.663 277.928C423.792 278.24 422.794 278.398 421.669 278.398C421.023 278.398 420.386 278.338 419.758 278.223C419.13 278.107 418.531 277.945 417.954 277.732C417.378 277.518 416.835 277.262 416.329 276.964C415.823 276.665 415.373 276.332 414.98 275.965L416.09 274.313C416.183 274.194 416.305 274.091 416.455 274.01C416.605 273.929 416.764 273.891 416.933 273.891C417.167 273.891 417.42 273.976 417.692 274.151C417.964 274.326 418.287 274.522 418.662 274.736C419.036 274.949 419.477 275.141 419.978 275.316C420.479 275.491 421.079 275.581 421.782 275.581C422.859 275.581 423.693 275.346 424.284 274.881C424.874 274.416 425.169 273.75 425.169 272.879C425.169 272.392 425.038 271.996 424.771 271.688C424.504 271.381 424.148 271.12 423.707 270.911C423.267 270.702 422.766 270.527 422.203 270.382C421.641 270.237 421.07 270.079 420.489 269.909C419.908 269.738 419.336 269.533 418.774 269.294C418.212 269.055 417.711 268.743 417.27 268.359C416.83 267.975 416.479 267.493 416.212 266.916C415.945 266.34 415.809 265.632 415.809 264.787C415.809 264.112 415.959 263.455 416.254 262.815C416.549 262.175 416.975 261.607 417.537 261.112C418.1 260.617 418.793 260.22 419.617 259.921C420.442 259.622 421.388 259.473 422.456 259.473C423.656 259.473 424.761 259.644 425.773 259.985C426.785 260.327 427.647 260.805 428.359 261.419L427.418 263.045ZM435.808 278.193H432.013V259.678H435.808V278.193ZM451.085 271.202L448.611 265.043C448.49 264.77 448.363 264.445 448.232 264.07C448.101 263.694 447.97 263.289 447.838 262.853C447.717 263.289 447.59 263.694 447.459 264.074C447.328 264.454 447.201 264.787 447.079 265.068L444.62 271.202H451.085ZM457.761 278.193H454.837C454.51 278.193 454.243 278.116 454.036 277.967C453.83 277.817 453.675 277.634 453.573 277.412L452.055 273.634H443.636L442.118 277.412C442.043 277.608 441.898 277.787 441.683 277.95C441.467 278.112 441.2 278.193 440.882 278.193H437.93L445.927 259.678H449.778L457.761 278.193Z" fill="#2A324B"/>
<path fill-rule="evenodd" clip-rule="evenodd" d="M23 233.21H56.9391H78.8334C83.2277 232.672 86.631 228.861 86.631 224.321C86.631 219.782 83.2277 215.971 78.8334 215.433H77.7422H56.9391H23V201.686H77.762H78.8334V201.712C90.8374 202.271 100.398 212.179 100.398 224.321C100.398 230.45 97.9614 236.009 94.0057 240.084C97.9614 244.159 100.398 249.718 100.398 255.846C100.398 267.988 90.8374 277.897 78.8334 278.456V278.482H23V264.735H56.9391H78.8334C83.2277 264.197 86.631 260.386 86.631 255.846C86.631 251.307 83.2277 247.495 78.8334 246.957H77.7422H56.9391H23V233.21Z" fill="#2A324B"/>
<path fill-rule="evenodd" clip-rule="evenodd" d="M138.968 201.685V235.624V257.519C138.43 261.913 134.619 265.316 130.079 265.316C125.54 265.316 121.729 261.913 121.191 257.519V256.427V235.624V201.685H107.444V256.447V257.519H107.47C108.029 269.523 117.937 279.083 130.079 279.083C142.222 279.083 152.13 269.523 152.689 257.519H152.715V201.685H138.968Z" fill="#2A324B"/>
<path fill-rule="evenodd" clip-rule="evenodd" d="M276.681 278.398V244.459V222.564C276.143 218.17 272.332 214.767 267.792 214.767C263.252 214.767 259.441 218.17 258.903 222.564V223.655V244.459V278.398H245.156V223.636V222.564H245.182C245.741 210.56 255.65 201 267.792 201C279.934 201 289.843 210.56 290.402 222.564H290.428V278.398H276.681Z" fill="#0B9EA9"/>
<path fill-rule="evenodd" clip-rule="evenodd" d="M192.237 278.398V244.459V222.564C191.699 218.17 187.888 214.767 183.348 214.767C178.808 214.767 174.997 218.17 174.459 222.564V223.655V244.459V278.398H160.712V223.636V222.564H160.738C161.297 210.56 171.206 201 183.348 201C189.476 201 195.035 203.436 199.11 207.392C203.186 203.436 208.744 201 214.873 201C227.015 201 236.923 210.56 237.483 222.564H237.509V278.398H223.761V244.459V222.564C223.224 218.17 219.412 214.767 214.873 214.767C210.333 214.767 206.522 218.17 205.984 222.564V223.655V244.459V278.398H192.237Z" fill="#0B9EA9"/>
</svg>
