<svg width="240" height="240" viewBox="0 0 240 240" fill="none" xmlns="http://www.w3.org/2000/svg">
<path d="M156.078 121.969C156.446 121.969 156.776 121.913 157.065 121.802C157.355 121.69 157.598 121.534 157.796 121.332C157.994 121.13 158.147 120.885 158.253 120.598C158.359 120.31 158.411 119.988 158.411 119.632V114.055H160.312V119.632C160.312 120.186 160.215 120.696 160.02 121.167C159.824 121.637 159.544 122.042 159.179 122.384C158.814 122.725 158.368 122.991 157.845 123.182C157.322 123.373 156.733 123.47 156.078 123.47C155.419 123.47 154.827 123.373 154.304 123.182C153.781 122.991 153.338 122.725 152.973 122.384C152.608 122.042 152.327 121.637 152.132 121.167C151.936 120.696 151.837 120.186 151.837 119.632V114.055H153.739V119.625C153.739 119.982 153.793 120.304 153.899 120.591C154.005 120.879 154.158 121.124 154.358 121.327C154.559 121.531 154.804 121.69 155.093 121.802C155.383 121.913 155.711 121.969 156.078 121.969ZM171.077 114.055V123.367H170.101C169.951 123.367 169.826 123.343 169.724 123.298C169.623 123.253 169.524 123.178 169.43 123.07L164.094 116.863C164.122 117.146 164.136 117.408 164.136 117.648V123.367H162.461V114.055H163.457C163.537 114.055 163.608 114.057 163.667 114.064C163.726 114.07 163.778 114.083 163.822 114.103C163.867 114.122 163.91 114.15 163.952 114.186C163.995 114.223 164.042 114.272 164.094 114.332L169.451 120.565C169.437 120.415 169.425 120.267 169.416 120.121C169.406 119.975 169.402 119.84 169.402 119.716V114.055H171.077ZM180.491 115.478H177.41V123.367H175.509V115.478H172.427V114.055H180.491V115.478ZM185.948 121.969C186.316 121.969 186.645 121.913 186.935 121.802C187.225 121.69 187.468 121.534 187.666 121.332C187.863 121.13 188.017 120.885 188.123 120.598C188.229 120.31 188.28 119.988 188.28 119.632V114.055H190.182V119.632C190.182 120.186 190.085 120.696 189.89 121.167C189.694 121.637 189.414 122.042 189.048 122.384C188.683 122.725 188.238 122.991 187.715 123.182C187.192 123.373 186.603 123.47 185.948 123.47C185.288 123.47 184.697 123.373 184.174 123.182C183.651 122.991 183.208 122.725 182.843 122.384C182.478 122.042 182.197 121.637 182.002 121.167C181.806 120.696 181.707 120.186 181.707 119.632V114.055H183.608V119.625C183.608 119.982 183.663 120.304 183.769 120.591C183.875 120.879 184.028 121.124 184.228 121.327C184.428 121.531 184.673 121.69 184.963 121.802C185.253 121.913 185.58 121.969 185.948 121.969ZM194.232 117.958H194.677C194.856 117.958 195.005 117.934 195.122 117.889C195.24 117.844 195.342 117.773 195.426 117.674L198.247 114.422C198.364 114.285 198.489 114.188 198.619 114.135C198.748 114.081 198.911 114.055 199.109 114.055H200.749L197.306 117.925C197.104 118.161 196.894 118.329 196.677 118.428C196.833 118.479 196.974 118.55 197.099 118.642C197.224 118.735 197.342 118.857 197.455 119.007L201.003 123.367H199.328C199.102 123.367 198.934 123.337 198.824 123.279C198.713 123.221 198.619 123.137 198.543 123.025L195.652 119.587C195.563 119.471 195.459 119.389 195.342 119.342C195.224 119.295 195.054 119.271 194.833 119.271H194.232V123.367H192.33V114.055H194.232V117.958ZM153.873 138.821H151.965V129.51H153.873V138.821ZM164.772 129.51V138.821H163.797C163.646 138.821 163.521 138.798 163.42 138.753C163.318 138.707 163.219 138.632 163.125 138.525L157.789 132.317C157.817 132.601 157.831 132.863 157.831 133.103V138.821H156.156V129.51H157.153C157.233 129.51 157.303 129.512 157.362 129.518C157.421 129.525 157.473 129.538 157.518 129.557C157.562 129.576 157.605 129.604 157.647 129.641C157.69 129.677 157.737 129.727 157.789 129.787L163.146 136.02C163.132 135.87 163.12 135.722 163.111 135.576C163.102 135.43 163.097 135.295 163.097 135.17V129.51H164.772ZM176.123 134.165C176.123 134.848 175.998 135.475 175.749 136.046C175.499 136.617 175.148 137.108 174.696 137.52C174.243 137.933 173.699 138.252 173.063 138.48C172.427 138.707 171.72 138.821 170.942 138.821H167.048V129.51H170.942C171.72 129.51 172.427 129.624 173.063 129.853C173.699 130.083 174.243 130.403 174.696 130.813C175.148 131.223 175.499 131.714 175.749 132.285C175.998 132.856 176.123 133.483 176.123 134.165ZM174.172 134.165C174.172 133.655 174.099 133.195 173.951 132.79C173.803 132.384 173.588 132.041 173.308 131.759C173.028 131.478 172.688 131.264 172.29 131.113C171.892 130.963 171.442 130.888 170.942 130.888H168.956V137.443H170.942C171.442 137.443 171.892 137.368 172.29 137.218C172.688 137.068 173.028 136.851 173.308 136.57C173.588 136.288 173.803 135.945 173.951 135.539C174.099 135.134 174.172 134.676 174.172 134.165ZM187.545 134.165C187.545 134.848 187.423 135.479 187.175 136.061C186.928 136.643 186.577 137.147 186.125 137.572C185.672 137.997 185.128 138.328 184.492 138.566C183.856 138.804 183.149 138.924 182.371 138.924C181.599 138.924 180.894 138.804 180.258 138.566C179.622 138.328 179.078 137.997 178.623 137.572C178.168 137.147 177.815 136.643 177.565 136.061C177.315 135.479 177.19 134.848 177.19 134.165C177.19 133.483 177.315 132.85 177.565 132.268C177.815 131.686 178.168 131.184 178.623 130.759C179.078 130.334 179.622 130.001 180.258 129.763C180.894 129.525 181.599 129.407 182.371 129.407C182.89 129.407 183.378 129.46 183.835 129.57C184.292 129.679 184.711 129.834 185.093 130.034C185.474 130.233 185.818 130.476 186.122 130.761C186.426 131.047 186.683 131.367 186.895 131.719C187.107 132.071 187.27 132.453 187.38 132.865C187.491 133.277 187.545 133.71 187.545 134.165ZM185.602 134.165C185.602 133.655 185.526 133.195 185.375 132.79C185.225 132.384 185.01 132.041 184.732 131.757C184.454 131.474 184.117 131.257 183.719 131.107C183.321 130.957 182.871 130.882 182.371 130.882C181.872 130.882 181.424 130.957 181.026 131.107C180.628 131.257 180.289 131.474 180.008 131.757C179.728 132.041 179.511 132.384 179.36 132.79C179.21 133.195 179.134 133.655 179.134 134.165C179.134 134.676 179.21 135.134 179.36 135.539C179.511 135.945 179.728 136.288 180.008 136.57C180.289 136.851 180.628 137.068 181.026 137.218C181.424 137.368 181.872 137.443 182.371 137.443C182.871 137.443 183.321 137.368 183.719 137.218C184.117 137.068 184.454 136.851 184.732 136.57C185.01 136.288 185.225 135.945 185.375 135.539C185.526 135.134 185.602 134.676 185.602 134.165ZM197.836 129.51V138.821H196.861C196.71 138.821 196.585 138.798 196.484 138.753C196.383 138.707 196.284 138.632 196.19 138.525L190.853 132.317C190.881 132.601 190.896 132.863 190.896 133.103V138.821H189.22V129.51H190.217C190.297 129.51 190.368 129.512 190.427 129.518C190.486 129.525 190.537 129.538 190.582 129.557C190.627 129.576 190.669 129.604 190.712 129.641C190.754 129.677 190.801 129.727 190.853 129.787L196.211 136.02C196.197 135.87 196.185 135.722 196.175 135.576C196.166 135.43 196.161 135.295 196.161 135.17V129.51H197.836ZM202.021 130.888V133.47H205.597V134.803H202.021V137.437H206.558V138.821H200.112V129.51H206.558V130.888H202.021ZM213.683 131.203C213.627 131.294 213.568 131.358 213.504 131.399C213.44 131.44 213.36 131.461 213.266 131.461C213.167 131.461 213.061 131.427 212.946 131.36C212.83 131.294 212.691 131.221 212.531 131.139C212.371 131.058 212.185 130.982 211.97 130.916C211.756 130.849 211.501 130.817 211.209 130.817C210.945 130.817 210.715 130.845 210.517 130.903C210.319 130.961 210.154 131.042 210.019 131.145C209.885 131.248 209.784 131.371 209.718 131.515C209.652 131.658 209.619 131.817 209.619 131.989C209.619 132.208 209.687 132.39 209.822 132.536C209.956 132.682 210.133 132.807 210.354 132.91C210.576 133.013 210.828 133.105 211.11 133.187C211.393 133.268 211.683 133.354 211.98 133.446C212.277 133.539 212.566 133.646 212.849 133.768C213.132 133.891 213.384 134.045 213.605 134.232C213.827 134.419 214.006 134.649 214.14 134.919C214.274 135.189 214.34 135.518 214.34 135.904C214.34 136.325 214.263 136.718 214.105 137.085C213.947 137.452 213.716 137.772 213.412 138.044C213.108 138.317 212.736 138.531 212.298 138.688C211.86 138.845 211.358 138.924 210.792 138.924C210.467 138.924 210.147 138.894 209.831 138.836C209.515 138.778 209.214 138.697 208.924 138.589C208.634 138.482 208.361 138.353 208.106 138.203C207.852 138.053 207.626 137.885 207.428 137.701L207.986 136.87C208.033 136.81 208.095 136.759 208.17 136.718C208.245 136.677 208.325 136.658 208.41 136.658C208.528 136.658 208.655 136.701 208.792 136.789C208.929 136.877 209.091 136.975 209.28 137.083C209.468 137.19 209.69 137.287 209.942 137.375C210.194 137.463 210.495 137.508 210.849 137.508C211.391 137.508 211.81 137.39 212.107 137.156C212.404 136.922 212.552 136.587 212.552 136.149C212.552 135.904 212.486 135.705 212.352 135.55C212.218 135.396 212.039 135.264 211.817 135.159C211.596 135.054 211.344 134.966 211.061 134.893C210.778 134.82 210.491 134.741 210.199 134.655C209.906 134.569 209.619 134.466 209.336 134.346C209.054 134.226 208.801 134.069 208.58 133.876C208.358 133.683 208.182 133.44 208.047 133.15C207.913 132.86 207.845 132.504 207.845 132.079C207.845 131.74 207.92 131.41 208.069 131.088C208.217 130.765 208.432 130.48 208.714 130.231C208.997 129.982 209.346 129.782 209.76 129.632C210.175 129.482 210.651 129.407 211.188 129.407C211.791 129.407 212.347 129.493 212.856 129.664C213.365 129.836 213.799 130.077 214.157 130.386L213.683 131.203ZM217.903 138.821H215.994V129.51H217.903V138.821ZM225.586 135.305L224.342 132.208C224.281 132.071 224.217 131.907 224.151 131.719C224.085 131.53 224.019 131.326 223.953 131.107C223.892 131.326 223.828 131.53 223.762 131.721C223.696 131.912 223.633 132.079 223.571 132.221L222.334 135.305H225.586ZM228.943 138.821H227.473C227.308 138.821 227.174 138.783 227.07 138.707C226.966 138.632 226.889 138.54 226.837 138.428L226.073 136.529H221.84L221.076 138.428C221.039 138.527 220.966 138.617 220.857 138.699C220.749 138.78 220.615 138.821 220.454 138.821H218.97L222.992 129.51H224.928L228.943 138.821Z" fill="#2A324B"/>
<path fill-rule="evenodd" clip-rule="evenodd" d="M10.2961 116.199H27.3646H38.3755C40.5854 115.928 42.297 114.012 42.297 111.729C42.297 109.446 40.5854 107.529 38.3755 107.258H37.8267H27.3646H10.2961V100.345H37.8367H38.3755V100.358C44.4124 100.639 49.2205 105.622 49.2205 111.729C49.2205 114.811 47.9952 117.606 46.0058 119.656C47.9952 121.705 49.2205 124.501 49.2205 127.583C49.2205 133.689 44.4124 138.672 38.3755 138.954V138.967H10.2961V132.053H27.3646H38.3755C40.5854 131.783 42.297 129.866 42.297 127.583C42.297 125.3 40.5854 123.383 38.3755 123.113H37.8267H27.3646H10.2961V116.199Z" fill="#2A324B"/>
<path fill-rule="evenodd" clip-rule="evenodd" d="M68.6181 100.345V117.413V128.424C68.3475 130.634 66.4307 132.346 64.1477 132.346C61.8647 132.346 59.948 130.634 59.6775 128.424V127.875V117.413V100.345H52.7639V127.885V128.424H52.777C53.0583 134.461 58.0413 139.269 64.1477 139.269C70.2543 139.269 75.2373 134.461 75.5186 128.424H75.5316V100.345H68.6181Z" fill="#2A324B"/>
<path fill-rule="evenodd" clip-rule="evenodd" d="M137.875 138.924V121.856V110.845C137.605 108.635 135.688 106.923 133.405 106.923C131.122 106.923 129.205 108.635 128.935 110.845V111.394V121.856V138.924H122.021V111.384V110.845H122.034C122.316 104.808 127.299 99.9999 133.405 99.9999C139.512 99.9999 144.495 104.808 144.776 110.845H144.789V138.924H137.875Z" fill="#0B9EA9"/>
<path fill-rule="evenodd" clip-rule="evenodd" d="M95.4077 138.924V121.856V110.845C95.137 108.635 93.2203 106.923 90.9373 106.923C88.6542 106.923 86.7376 108.635 86.467 110.845V111.394V121.856V138.924H79.5535V111.384V110.845H79.5664C79.8477 104.808 84.8308 99.9999 90.9373 99.9999C94.0193 99.9999 96.8149 101.225 98.8644 103.215C100.914 101.225 103.709 99.9999 106.791 99.9999C112.898 99.9999 117.881 104.808 118.162 110.845H118.175V138.924H111.262V121.856V110.845C110.991 108.635 109.075 106.923 106.791 106.923C104.508 106.923 102.592 108.635 102.321 110.845V111.394V121.856V138.924H95.4077Z" fill="#0B9EA9"/>
</svg>
