<svg width="720" height="720" viewBox="0 0 720 720" fill="none" xmlns="http://www.w3.org/2000/svg">
<path d="M470.132 367.51C471.241 367.51 472.237 367.341 473.111 367.005C473.986 366.668 474.718 366.195 475.315 365.586C475.912 364.977 476.374 364.239 476.694 363.371C477.014 362.503 477.17 361.532 477.17 360.456V343.629H482.908V360.456C482.908 362.127 482.616 363.669 482.026 365.088C481.436 366.506 480.59 367.73 479.488 368.76C478.386 369.79 477.042 370.593 475.464 371.169C473.886 371.746 472.109 372.037 470.132 372.037C468.142 372.037 466.357 371.746 464.779 371.169C463.201 370.593 461.864 369.79 460.762 368.76C459.66 367.73 458.814 366.506 458.224 365.088C457.634 363.669 457.336 362.127 457.336 360.456V343.629H463.073V360.437C463.073 361.512 463.236 362.484 463.556 363.352C463.876 364.219 464.338 364.958 464.942 365.573C465.547 366.189 466.286 366.668 467.161 367.005C468.035 367.341 469.023 367.51 470.132 367.51ZM515.39 343.629V371.727H512.447C511.992 371.727 511.615 371.655 511.309 371.519C511.003 371.383 510.705 371.156 510.42 370.832L494.318 352.101C494.403 352.956 494.446 353.746 494.446 354.472V371.727H489.391V343.629H492.399C492.64 343.629 492.853 343.636 493.031 343.655C493.209 343.675 493.365 343.714 493.5 343.772C493.635 343.83 493.763 343.914 493.892 344.024C494.019 344.135 494.162 344.284 494.318 344.465L510.484 363.274C510.442 362.821 510.406 362.374 510.378 361.933C510.349 361.493 510.335 361.085 510.335 360.709V343.629H515.39ZM543.798 347.924H534.5V371.727H528.763V347.924H519.464V343.629H543.798V347.924ZM560.263 367.51C561.373 367.51 562.368 367.341 563.242 367.005C564.117 366.668 564.849 366.195 565.446 365.586C566.043 364.977 566.505 364.239 566.825 363.371C567.145 362.503 567.302 361.532 567.302 360.456V343.629H573.039V360.456C573.039 362.127 572.747 363.669 572.157 365.088C571.567 366.506 570.721 367.73 569.619 368.76C568.517 369.79 567.174 370.593 565.595 371.169C564.017 371.746 562.24 372.037 560.263 372.037C558.273 372.037 556.488 371.746 554.91 371.169C553.332 370.593 551.996 369.79 550.894 368.76C549.791 367.73 548.945 366.506 548.355 365.088C547.765 363.669 547.467 362.127 547.467 360.456V343.629H553.204V360.437C553.204 361.512 553.367 362.484 553.687 363.352C554.007 364.219 554.469 364.958 555.073 365.573C555.678 366.189 556.417 366.668 557.292 367.005C558.166 367.341 559.154 367.51 560.263 367.51ZM585.259 355.405H586.603C587.144 355.405 587.592 355.333 587.947 355.197C588.303 355.061 588.608 354.847 588.864 354.55L597.374 344.737C597.729 344.322 598.106 344.031 598.497 343.869C598.888 343.707 599.378 343.629 599.976 343.629H604.924L594.537 355.307C593.926 356.02 593.293 356.525 592.639 356.823C593.108 356.979 593.535 357.192 593.912 357.471C594.288 357.749 594.644 358.118 594.985 358.572L605.692 371.727H600.637C599.954 371.727 599.45 371.636 599.116 371.461C598.781 371.286 598.497 371.034 598.27 370.697L589.546 360.32C589.276 359.971 588.963 359.725 588.608 359.582C588.252 359.44 587.741 359.368 587.072 359.368H585.259V371.727H579.522V343.629H585.259V355.405ZM463.478 418.36H457.72V390.263H463.478V418.36ZM496.365 390.263V418.36H493.422C492.967 418.36 492.59 418.289 492.285 418.153C491.979 418.017 491.681 417.79 491.396 417.466L475.294 398.735C475.379 399.59 475.421 400.38 475.421 401.106V418.36H470.367V390.263H473.374C473.616 390.263 473.829 390.27 474.006 390.289C474.184 390.308 474.341 390.347 474.476 390.406C474.611 390.464 474.739 390.548 474.867 390.658C474.995 390.769 475.137 390.917 475.294 391.099L491.46 409.908C491.417 409.455 491.382 409.007 491.353 408.567C491.325 408.127 491.311 407.719 491.311 407.343V390.263H496.365ZM530.618 404.311C530.618 406.371 530.241 408.263 529.487 409.986C528.734 411.708 527.675 413.192 526.31 414.435C524.944 415.679 523.302 416.644 521.383 417.33C519.464 418.017 517.331 418.36 514.985 418.36H503.233V390.263H514.985C517.331 390.263 519.464 390.607 521.383 391.3C523.302 391.992 524.944 392.958 526.31 394.195C527.675 395.432 528.734 396.915 529.487 398.638C530.241 400.361 530.618 402.252 530.618 404.311ZM524.731 404.311C524.731 402.77 524.511 401.384 524.063 400.16C523.615 398.936 522.968 397.899 522.122 397.051C521.276 396.203 520.252 395.555 519.051 395.101C517.85 394.648 516.492 394.421 514.985 394.421H508.992V414.202H514.985C516.492 414.202 517.85 413.975 519.051 413.522C520.252 413.069 521.276 412.415 522.122 411.566C522.968 410.717 523.615 409.681 524.063 408.457C524.511 407.233 524.731 405.853 524.731 404.311ZM565.083 404.311C565.083 406.371 564.714 408.276 563.967 410.031C563.22 411.786 562.161 413.308 560.796 414.591C559.431 415.873 557.789 416.871 555.87 417.59C553.95 418.308 551.817 418.671 549.471 418.671C547.14 418.671 545.014 418.308 543.094 417.59C541.175 416.871 539.533 415.873 538.16 414.591C536.788 413.308 535.722 411.786 534.968 410.031C534.215 408.276 533.838 406.371 533.838 404.311C533.838 402.252 534.215 400.341 534.968 398.586C535.722 396.831 536.788 395.315 538.16 394.033C539.533 392.75 541.175 391.747 543.094 391.027C545.014 390.308 547.14 389.952 549.471 389.952C551.035 389.952 552.507 390.114 553.886 390.445C555.265 390.775 556.531 391.241 557.683 391.844C558.834 392.446 559.872 393.178 560.789 394.039C561.706 394.901 562.481 395.866 563.121 396.928C563.761 397.99 564.252 399.143 564.585 400.387C564.92 401.63 565.083 402.939 565.083 404.311ZM559.218 404.311C559.218 402.77 558.991 401.384 558.535 400.16C558.081 398.936 557.434 397.899 556.595 397.044C555.756 396.189 554.74 395.535 553.538 395.082C552.336 394.629 550.979 394.402 549.471 394.402C547.964 394.402 546.613 394.629 545.412 395.082C544.211 395.535 543.187 396.189 542.341 397.044C541.495 397.899 540.841 398.936 540.386 400.16C539.931 401.384 539.703 402.77 539.703 404.311C539.703 405.853 539.931 407.233 540.386 408.457C540.841 409.681 541.495 410.717 542.341 411.566C543.187 412.415 544.211 413.069 545.412 413.522C546.613 413.975 547.964 414.202 549.471 414.202C550.979 414.202 552.336 413.975 553.538 413.522C554.74 413.069 555.756 412.415 556.595 411.566C557.434 410.717 558.081 409.681 558.535 408.457C558.991 407.233 559.218 405.853 559.218 404.311ZM596.136 390.263V418.36H593.193C592.738 418.36 592.361 418.289 592.056 418.153C591.75 418.017 591.452 417.79 591.167 417.466L575.065 398.735C575.15 399.59 575.193 400.38 575.193 401.106V418.36H570.138V390.263H573.145C573.387 390.263 573.6 390.27 573.778 390.289C573.956 390.308 574.112 390.347 574.247 390.406C574.382 390.464 574.51 390.548 574.638 390.658C574.766 390.769 574.909 390.917 575.065 391.099L591.231 409.908C591.189 409.455 591.153 409.007 591.124 408.567C591.096 408.127 591.082 407.719 591.082 407.343V390.263H596.136ZM608.763 394.421V402.213H619.554V406.235H608.763V414.183H622.455V418.36H603.004V390.263H622.455V394.421H608.763ZM643.954 395.373C643.783 395.646 643.605 395.84 643.413 395.963C643.221 396.086 642.98 396.151 642.695 396.151C642.396 396.151 642.076 396.047 641.728 395.847C641.38 395.646 640.961 395.425 640.477 395.179C639.994 394.933 639.432 394.707 638.785 394.506C638.138 394.305 637.37 394.208 636.489 394.208C635.692 394.208 634.996 394.292 634.398 394.467C633.801 394.642 633.304 394.888 632.898 395.199C632.493 395.509 632.187 395.879 631.989 396.313C631.79 396.747 631.69 397.226 631.69 397.744C631.69 398.405 631.896 398.955 632.301 399.396C632.707 399.836 633.24 400.212 633.908 400.523C634.576 400.834 635.337 401.112 636.19 401.358C637.043 401.604 637.918 401.864 638.814 402.142C639.709 402.421 640.584 402.744 641.437 403.114C642.29 403.483 643.051 403.949 643.719 404.513C644.387 405.076 644.927 405.769 645.333 406.585C645.738 407.401 645.937 408.392 645.937 409.558C645.937 410.828 645.702 412.013 645.226 413.12C644.75 414.228 644.053 415.193 643.136 416.016C642.219 416.838 641.095 417.486 639.773 417.959C638.451 418.431 636.937 418.671 635.23 418.671C634.249 418.671 633.282 418.581 632.33 418.405C631.377 418.231 630.467 417.985 629.593 417.661C628.718 417.337 627.894 416.948 627.126 416.495C626.358 416.041 625.676 415.536 625.079 414.979L626.763 412.473C626.905 412.291 627.09 412.136 627.318 412.013C627.545 411.89 627.787 411.831 628.043 411.831C628.398 411.831 628.782 411.961 629.194 412.226C629.607 412.492 630.097 412.79 630.666 413.114C631.235 413.438 631.903 413.729 632.664 413.995C633.425 414.26 634.335 414.396 635.401 414.396C637.036 414.396 638.301 414.04 639.197 413.334C640.093 412.628 640.541 411.618 640.541 410.297C640.541 409.558 640.342 408.956 639.937 408.489C639.532 408.023 638.991 407.628 638.323 407.311C637.655 406.993 636.894 406.728 636.041 406.507C635.188 406.288 634.32 406.047 633.439 405.789C632.557 405.529 631.69 405.219 630.837 404.856C629.984 404.493 629.223 404.021 628.555 403.438C627.886 402.854 627.353 402.123 626.948 401.248C626.543 400.374 626.337 399.299 626.337 398.016C626.337 396.993 626.564 395.995 627.012 395.024C627.46 394.052 628.107 393.191 628.96 392.44C629.813 391.688 630.865 391.086 632.116 390.632C633.368 390.179 634.804 389.952 636.425 389.952C638.245 389.952 639.923 390.211 641.458 390.73C642.994 391.248 644.302 391.973 645.383 392.906L643.954 395.373ZM656.686 418.36H650.927V390.263H656.686V418.36ZM679.869 407.751L676.116 398.405C675.931 397.99 675.739 397.498 675.54 396.928C675.341 396.358 675.142 395.743 674.942 395.082C674.758 395.743 674.566 396.358 674.367 396.934C674.168 397.511 673.976 398.016 673.791 398.444L670.059 407.751H679.869ZM690 418.36H685.564C685.066 418.36 684.661 418.244 684.348 418.017C684.035 417.79 683.8 417.512 683.644 417.175L681.341 411.443H668.566L666.262 417.175C666.148 417.473 665.928 417.745 665.601 417.991C665.274 418.237 664.869 418.36 664.385 418.36H659.906L672.042 390.263H677.886L690 418.36Z" fill="#2A324B"/>
<path fill-rule="evenodd" clip-rule="evenodd" d="M30.2393 350.098H81.7428H114.968C121.636 349.282 126.801 343.498 126.801 336.609C126.801 329.72 121.636 323.936 114.968 323.12H113.312H81.7428H30.2393V302.259H113.342H114.968V302.298C133.184 303.146 147.692 318.183 147.692 336.609C147.692 345.909 143.995 354.344 137.992 360.529C143.995 366.713 147.692 375.148 147.692 384.448C147.692 402.874 133.184 417.911 114.968 418.76V418.799H30.2393V397.937H81.7428H114.968C121.636 397.121 126.801 391.337 126.801 384.448C126.801 377.559 121.636 371.776 114.968 370.959H113.312H81.7428H30.2393V350.098Z" fill="#2A324B"/>
<path fill-rule="evenodd" clip-rule="evenodd" d="M206.224 302.258V353.762V386.987C205.408 393.655 199.624 398.82 192.735 398.82C185.846 398.82 180.063 393.655 179.246 386.987V385.331V353.762V302.258H158.385V385.361V386.987H158.424C159.273 405.203 174.309 419.711 192.735 419.711C211.161 419.711 226.197 405.203 227.046 386.987H227.086V302.258H206.224Z" fill="#2A324B"/>
<path fill-rule="evenodd" clip-rule="evenodd" d="M415.206 418.671V367.168V333.942C414.39 327.274 408.606 322.109 401.717 322.109C394.828 322.109 389.045 327.274 388.228 333.942V335.598V367.168V418.671H367.367V335.568V333.942H367.406C368.255 315.726 383.291 301.218 401.717 301.218C420.143 301.218 435.18 315.726 436.028 333.942H436.068V418.671H415.206Z" fill="#0B9EA9"/>
<path fill-rule="evenodd" clip-rule="evenodd" d="M287.061 418.671V367.168V333.942C286.244 327.274 280.46 322.109 273.571 322.109C266.682 322.109 260.899 327.274 260.082 333.942V335.598V367.168V418.671H239.221V335.568V333.942H239.26C240.109 315.726 255.145 301.218 273.571 301.218C282.871 301.218 291.307 304.915 297.491 310.918C303.676 304.915 312.111 301.218 321.411 301.218C339.837 301.218 354.873 315.726 355.722 333.942H355.761V418.671H334.9V367.168V333.942C334.084 327.274 328.3 322.109 321.411 322.109C314.522 322.109 308.738 327.274 307.922 333.942V335.598V367.168V418.671H287.061Z" fill="#0B9EA9"/>
</svg>
