<svg width="480" height="480" viewBox="0 0 480 480" fill="none" xmlns="http://www.w3.org/2000/svg">
<path d="M239.375 38C227.824 57.1812 215.097 75.8225 202.793 94.5276C199.374 99.7248 196.188 105.091 192.653 110.21C191.597 111.74 190.313 114.797 188.62 115.657C187.208 116.374 184.764 115.097 183.255 114.949C177.807 114.416 172.282 113.008 166.772 113.385C151.873 114.405 135.238 120.69 125.286 132.187C121.936 136.057 119.896 140.948 117.716 145.53L137.338 144.761L154.214 147.033L168.734 147.1C167.719 148.748 166.617 151.076 165.049 152.261C162.611 154.103 157.213 154.274 154.214 155.041C149.268 156.306 144.054 158.609 139.693 161.263C124.754 170.356 116.656 186.129 115.036 203.22C114.675 207.028 115.361 211.136 115.361 214.993L133.414 201.258L109.082 239.325H217.005C218.829 224.903 222.395 209.954 225.595 195.764C226.98 189.62 228.625 183.116 236.235 185.952L235.776 196.156L234.65 230.691L231.414 287.988L224.854 317.03H254.288C251.64 307.703 248.723 298.481 247.684 288.773C245.698 270.219 245.308 251.286 244.492 232.654C244.281 227.837 244.866 222.933 244.41 218.133C243.634 209.978 243.302 201.606 243.299 193.409C243.298 191.047 241.844 186.72 244.5 185.424C250.754 182.371 252.559 191.787 253.456 195.764C256.697 210.138 259.436 224.832 262.136 239.325H370.059L352.548 212.246L345.728 201.258L363.78 214.993C363.78 210.118 364.295 204.917 363.667 200.08C361.594 184.129 353.209 169.846 339.383 161.348C335.078 158.702 330.186 156.554 325.32 155.183C318.631 153.297 314.161 153.544 310.407 147.1L324.928 147.033L341.803 144.761L361.033 145.53C356.253 125.417 330.832 114.19 311.977 113.365C306.574 113.129 301.231 114.443 295.887 114.949C294.283 115.101 291.562 116.458 290.148 115.451C288.461 114.249 287.338 111.546 286.188 109.853C283.118 105.333 280.329 100.625 277.298 96.0821C268.378 82.7138 259.91 69.0495 251.023 55.6601C247.253 49.9793 244.089 42.9268 239.375 38Z" fill="#321B70"/>
<path d="M239.374 155.342C243.246 148.86 245.397 140.836 247.953 133.757C253.165 119.323 260.102 104.604 253.861 89.4106C251.625 83.9666 248.109 79.3232 244.308 74.8901C243.237 73.641 241.257 70.8828 239.374 71.0117C237.749 71.123 236.113 73.4021 235.093 74.4977C231.599 78.2483 228.583 82.4687 226.29 87.056C214.98 109.675 233.174 133.811 239.374 155.342Z" fill="white"/>
<path d="M126.35 139.644C131.889 139.628 137.279 139.074 142.833 139.756C148.947 140.507 155.089 142.379 161.278 142.379C168.68 142.379 175.586 139.193 182.862 138.874C200.505 138.102 215.195 146.005 229.171 155.734C217.491 126.101 178.322 111.76 149.504 122.602C140.506 125.988 131.508 131.287 126.35 139.644Z" fill="white"/>
<path d="M249.578 156.126C263.775 146.164 278.239 138.084 296.279 138.874C303.551 139.193 310.468 142.379 317.864 142.379C324.052 142.379 330.194 140.507 336.309 139.756C341.732 139.09 346.99 139.599 352.399 139.643C348.425 130.196 335.36 124.146 326.105 121.425C296.506 112.721 262.434 127.842 249.578 156.126Z" fill="white"/>
<path d="M120.463 203.612C124.883 200.86 128.773 197.405 133.414 194.955C141.635 190.615 150.48 187.873 158.53 183.15C166.369 178.552 172.917 171.98 180.9 167.684C191.594 161.928 204.085 161.37 215.827 163.583C213.157 161.363 208.581 160.258 205.231 159.492C198.275 157.899 191.601 156.519 184.432 156.519C159.471 156.519 131.241 163.842 122.929 190.662C121.642 194.814 120.65 199.247 120.463 203.612Z" fill="white"/>
<path d="M263.314 163.19V163.583C275.299 161.258 288.209 162.014 299.026 168.123C306.124 172.131 312.041 178.02 319.041 182.234C326.848 186.934 335.31 189.654 343.373 193.748C348.859 196.533 353.409 200.581 358.678 203.612C356.858 193.811 355.236 184.927 348.913 176.775C330.252 152.717 289.119 151.695 263.314 163.19Z" fill="white"/>
<path d="M91.8142 266.012H178.152H200.914L209.292 265.608L211.351 260.125L215.042 246.782H136.161H113.791L104.52 247.018L100.567 252.282L91.8142 266.012Z" fill="#321B70"/>
<path d="M264.099 246.782L267.988 260.91L269.762 265.608L278.227 266.012H300.989H386.934L375.161 246.782H264.099Z" fill="#321B70"/>
<path d="M74.5466 292.698H198.167L207.194 273.468H122.033H97.701L87.2067 273.704L83.0745 279.32L74.5466 292.698Z" fill="#321B70"/>
<path d="M271.947 273.468L278.388 287.988L281.494 292.461L291.962 292.698H317.079H404.202L395.549 278.57L391.883 273.704L381.832 273.468H357.501H271.947Z" fill="#321B70"/>
<path d="M58.8486 317.029H140.87H165.594L177.352 316.829L182.548 312.477L193.065 300.154H105.55H80.4332L69.9207 300.391L66.4932 304.869L58.8486 317.029Z" fill="#321B70"/>
<path d="M286.076 300.154L295.23 311.221L301.416 316.798L312.37 317.029H336.701H419.9L412.147 304.32L409.155 300.391L401.455 300.154H383.402H286.076Z" fill="#321B70"/>
<path d="M51 345.286V347.248C55.5377 347.286 61.5473 348.508 63.0169 353.527C64.843 359.763 63.9507 367.122 63.9507 373.542V410.039C63.9507 416.995 65.468 426.621 62.7719 433.178C60.8213 437.923 55.357 438.139 51 438.688V440.65H91.0296V438.688C87.6139 438.417 83.247 438.225 80.6173 435.756C78.2794 433.563 78.08 429.909 78.0788 426.915V410.432C78.0788 406.943 76.1787 395.314 81.9878 395.314C83.3041 395.314 84.4603 396.956 85.2997 397.795L92.2854 404.702C99.2446 411.661 106.265 418.534 112.212 426.41C113.804 428.518 117.607 432.617 116.677 435.548C115.615 438.892 109.539 438.629 106.727 438.688V440.65H150.289V438.688C141.595 438.507 135.819 431.581 130.337 425.737C122.383 417.255 114.199 408.892 106.486 400.193C102.857 396.101 98.3534 389.291 93.3842 386.885C95.6412 382.224 101.509 378.432 105.158 374.798C115.408 364.588 127.379 347.291 143.225 347.248V345.286H105.943V347.248C107.522 347.248 109.091 347.206 110.652 347.49C119.881 349.165 113.997 357.296 110.192 361.391C100.684 371.624 89.4888 382.749 78.0788 390.809V363.731C78.0788 359.919 77.3546 354.944 79.5417 351.565C81.9712 347.812 87.3434 347.251 91.422 347.248V345.286H51Z" fill="#321B70"/>
<path d="M200.13 345.286V347.248C204.97 347.248 211.011 347.724 213.239 352.743C215.762 358.424 214.65 366.287 214.65 372.364V412.394C214.65 418.728 215.962 427.311 213.275 433.194C210.982 438.213 204.997 438.586 200.13 438.688V440.65H242.906V438.688C237.602 438.578 231.476 438.052 229.255 432.409C227.317 427.487 228.778 419.619 228.778 414.356V373.542C228.778 367.615 227.108 358.65 229.374 353.135C231.589 347.743 237.834 347.248 242.906 347.248V345.286H200.13Z" fill="#321B70"/>
<path d="M293.532 345.286V347.248C302.669 347.666 306.089 357.603 308.621 364.908C314.99 383.283 321.781 401.696 328.727 419.85C330.902 425.535 332.595 431.42 334.739 437.118C335.196 438.335 335.712 442.361 337.454 442.361C339.033 442.361 339.655 438.641 340.062 437.511C341.994 432.146 343.885 426.752 345.908 421.42C347.827 416.361 349.778 411.268 351.448 406.115C354.231 397.525 357.887 389.216 360.64 380.606H361.033C364.147 389.192 367.857 397.556 371.052 406.115C374.473 415.28 377.939 424.417 381.351 433.586C381.999 435.329 383.218 441.729 385.085 442.318C386.817 442.864 387.479 438.174 387.871 437.118C390.163 430.933 391.674 424.458 393.998 418.281C400.702 400.464 406.285 382.191 413.395 364.516C416.518 356.752 418.18 348.118 428.141 347.248V345.286H399.493V347.248C403.42 347.28 408.884 348.504 409.612 353.135C410.417 358.249 407.739 363.779 406.05 368.44C402.398 378.519 398.382 388.506 394.927 398.658C393.418 403.092 391.901 411.126 388.504 414.356C387.519 408.831 384.28 403.089 382.194 397.873C378.659 389.033 375.56 380.01 371.977 371.187C369.951 366.2 364.968 358.205 365.516 352.742C366.051 347.394 372.747 347.248 376.731 347.248V345.286H338.663V347.248C347.925 347.254 350.311 354.394 353.466 361.768C354.789 364.86 357.42 368.993 357.658 372.364C357.881 375.53 355.031 380.427 353.836 383.353C350.98 390.343 348.58 397.515 345.826 404.545C344.644 407.564 343.868 411.754 341.41 413.964C340.555 408.928 337.866 404.211 336.13 399.443C331.961 387.999 327.044 376.8 323.045 365.3C321.025 359.493 315.162 349.541 324.535 347.511C325.833 347.23 327.14 347.249 328.46 347.248V345.286H293.532Z" fill="#321B70"/>
</svg>
