<svg width="41" height="41" viewBox="0 0 41 41" fill="none" xmlns="http://www.w3.org/2000/svg">
<path fill-rule="evenodd" clip-rule="evenodd" d="M13.4789 15L17.4789 19L4 19C4 16.7909 5.79086 15 8 15H13.4789ZM37 19H24.5211L28.5211 15H33C35.2091 15 37 16.7909 37 19ZM4 23H37V31C37 33.2091 35.2091 35 33 35H8C5.79086 35 4 33.2091 4 31V23ZM8 25C6.89543 25 6 25.8954 6 27C6 28.1046 6.89543 29 8 29H10C11.1046 29 12 28.1046 12 27C12 25.8954 11.1046 25 10 25H8Z" fill="#9E85E8"/>
<path fill-rule="evenodd" clip-rule="evenodd" d="M24.6818 4C23.2533 4 21.9563 4.56325 21.0008 5.47979L21 5.47903L20.9992 5.47982C20.0438 4.56326 18.7468 4 17.3182 4C14.381 4 12 6.38104 12 9.31819C12 10.7468 12.5633 12.0438 13.4798 12.9992L13.479 13.0001L21 20.5211L28.5211 13.0001L28.5202 12.9992C29.4367 12.0437 30 10.7467 30 9.31819C30 6.38104 27.619 4 24.6818 4ZM20.125 8.875C20.125 8.39175 20.5168 8 21 8C21.4832 8 21.875 8.39175 21.875 8.875V10.625H23.625C24.1082 10.625 24.5 11.0168 24.5 11.5C24.5 11.9832 24.1082 12.375 23.625 12.375H21.875V14.125C21.875 14.6082 21.4832 15 21 15C20.5168 15 20.125 14.6082 20.125 14.125V12.375H18.375C17.8918 12.375 17.5 11.9832 17.5 11.5C17.5 11.0168 17.8918 10.625 18.375 10.625H20.125V8.875Z" fill="#492C9E"/>
</svg>
