<svg width="41" height="41" viewBox="0 0 41 41" fill="none" xmlns="http://www.w3.org/2000/svg">
<path d="M17.9619 33.4245C16.1857 33.4245 14.739 31.9792 14.739 30.2016C14.739 29.0729 15.3335 28.0244 16.2903 27.4687C16.8031 27.1707 17.4605 27.3455 17.7585 27.8568C18.0564 28.3696 17.8831 29.0271 17.3703 29.325C17.0681 29.5012 16.8876 29.8292 16.8876 30.2016C16.8876 30.7947 17.3703 31.2759 17.9619 31.2759C18.5534 31.2759 19.0362 30.7932 19.0362 30.2016C19.0362 30.0484 19.0061 29.9166 18.9459 29.802C18.6695 29.2778 18.8686 28.6275 19.3928 28.3496C19.9156 28.0703 20.5659 28.2722 20.8453 28.7965C21.0701 29.2233 21.1847 29.696 21.1847 30.2016C21.1847 31.9792 19.738 33.4245 17.9619 33.4245V33.4245Z" fill="#492C9E"/>
<path d="M27.9884 32.7424C27.8882 32.7424 27.785 32.7281 27.6862 32.6995L12.6462 28.2963C12.1893 28.1617 11.8741 27.742 11.8741 27.265V25.1164C11.8741 24.6366 12.1921 24.2155 12.6534 24.0837L27.6934 19.7865C28.0156 19.6963 28.368 19.7579 28.6344 19.9627C28.9052 20.1647 29.0627 20.4827 29.0627 20.8193V31.6682C29.0627 32.0062 28.9037 32.3242 28.6316 32.5276C28.4439 32.6694 28.2176 32.7424 27.9884 32.7424V32.7424Z" fill="#492C9E"/>
<path d="M27.9886 33.3531C27.3956 33.3531 26.9143 32.8718 26.9143 32.2788V20.1036C26.9143 19.5106 27.3956 19.0293 27.9886 19.0293C28.5816 19.0293 29.0629 19.5106 29.0629 20.1036V32.2788C29.0629 32.8718 28.5816 33.3531 27.9886 33.3531Z" fill="#492C9E"/>
<path d="M12.9484 29.0557C12.3554 29.0557 11.8741 28.5744 11.8741 27.9814V24.4005C11.8741 23.8075 12.3554 23.3262 12.9484 23.3262C13.5414 23.3262 14.0227 23.8075 14.0227 24.4005V27.9814C14.0227 28.5744 13.5414 29.0557 12.9484 29.0557Z" fill="#492C9E"/>
<path d="M33.36 7.57693H31.9276V4.71217C31.9276 3.92149 31.2859 3.27979 30.4953 3.27979H29.0629C28.2722 3.27979 27.6305 3.92149 27.6305 4.71217V7.57693H13.3067V4.71217C13.3067 3.92149 12.665 3.27979 11.8743 3.27979H10.4419C9.65126 3.27979 9.00955 3.92149 9.00955 4.71217V7.57693H7.57717C5.20801 7.57693 3.28003 9.50491 3.28003 11.8741V33.3598C3.28003 35.7289 5.20801 37.6569 7.57717 37.6569H33.36C35.7292 37.6569 37.6572 35.7289 37.6572 33.3598V11.8741C37.6572 9.50491 35.7292 7.57693 33.36 7.57693ZM33.36 34.7922H7.57717C6.7865 34.7922 6.14479 34.1505 6.14479 33.3598V16.2285H34.7924V33.3598C34.7924 34.1505 34.1507 34.7922 33.36 34.7922Z" fill="#9E85E8"/>
</svg>
