<svg width="41" height="41" viewBox="0 0 41 41" fill="none" xmlns="http://www.w3.org/2000/svg">
<path d="M38.54 24.616L36.613 29.6076L33.636 29.52C32.6899 30.9393 31.5048 32.1837 30.1333 33.1979L30.352 36.1756L25.4481 38.3213L23.39 36.1756C21.714 36.4819 20.0005 36.5261 18.3109 36.3067L16.3846 38.54L11.3923 36.613L11.48 33.636C10.061 32.6895 8.81658 31.5045 7.80201 30.1333L4.82504 30.352L2.67865 25.4481L4.82431 23.39C4.51801 21.714 4.47379 20.0005 4.69324 18.3109L2.45996 16.3839L4.38693 11.3923L7.3639 11.48C8.30997 10.0606 9.49511 8.8162 10.8666 7.80201L10.6479 4.82431L15.5518 2.67865L17.6099 4.82431C19.2862 4.51801 20.9999 4.47379 22.6898 4.69324L24.616 2.45996L29.6083 4.38693L29.5207 7.3639C30.9399 8.31043 32.1843 9.49579 33.1986 10.8673L36.1756 10.6479L38.3213 15.5518L36.1756 17.6099C36.4825 19.2859 36.527 20.9994 36.3074 22.6891L38.54 24.616ZM33.5329 20.5C33.5329 17.9223 32.7686 15.4025 31.3365 13.2592C29.9044 11.116 27.8689 9.44549 25.4875 8.45906C23.106 7.47262 20.4855 7.21453 17.9574 7.71741C15.4292 8.22029 13.1069 9.46156 11.2843 11.2843C9.46156 13.1069 8.22029 15.4292 7.71741 17.9574C7.21453 20.4855 7.47262 23.106 8.45906 25.4875C9.44549 27.8689 11.116 29.9044 13.2592 31.3365C15.4025 32.7686 17.9223 33.5329 20.5 33.5329C23.9565 33.5328 27.2714 32.1597 29.7155 29.7155C32.1597 27.2714 33.5328 23.9565 33.5329 20.5Z" fill="#9E85E8"/>
<path d="M15.1772 15.5569C14.4927 14.8724 11.5835 14.7013 10.6423 14.6157C10.5567 14.6157 10.4711 14.6157 10.3856 14.7013C10.3 14.7869 10.2145 14.958 10.2145 15.0436V22.7444C10.2145 23.0011 10.3856 23.1722 10.6423 23.1722H13.2093C13.3804 23.1722 13.5515 23.0867 13.6371 22.9155C13.6371 22.6588 15.1773 18.1239 15.3484 15.8992C15.3484 15.8136 15.3484 15.6425 15.1772 15.5569Z" fill="#9E85E8"/>
<path d="M24.3328 17.6105C23.4771 17.3538 22.7071 17.0116 22.0225 16.7549C20.4824 16.0703 19.7978 16.4126 18.4288 17.7816C17.8299 18.3806 17.402 19.2363 17.4876 19.5785C17.4876 19.664 17.4876 19.664 17.6587 19.7496C18.0866 19.9208 18.6855 20.0063 19.2844 19.0651C19.37 18.9796 19.4556 18.894 19.6267 18.894C19.8834 18.894 19.9689 18.8084 20.2256 18.7228C20.3968 18.6373 20.5679 18.5517 20.8246 18.4661C20.9101 18.4661 20.9101 18.4661 20.9957 18.4661C21.0813 18.4661 21.2524 18.5517 21.338 18.5517C21.7658 18.9796 22.5359 19.5785 23.306 20.263C24.5039 21.2043 25.7018 22.231 26.3008 23.0011H26.3863C25.7874 21.2898 24.7606 18.3806 24.3328 17.6105Z" fill="#492C9E"/>
<path d="M30.3221 15.4712C26.9851 15.4712 25.1027 16.3268 25.0171 16.3268C24.9315 16.4124 24.8459 16.498 24.7604 16.5835C24.7604 16.6691 24.7604 16.8402 24.8459 16.9258C25.3593 17.7814 27.0706 22.4875 27.3273 23.6854C27.4129 23.8565 27.584 24.0276 27.7552 24.0276H30.3221C30.5788 24.0276 30.7499 23.8565 30.7499 23.5998V15.8989C30.7499 15.6423 30.5788 15.4712 30.3221 15.4712Z" fill="#9E85E8"/>
<path d="M25.7016 23.8567C25.3594 23.0866 23.9048 21.9743 22.6213 20.9475C21.9368 20.3485 21.2523 19.8351 20.7389 19.4073C20.6533 19.4928 20.4822 19.4928 20.4822 19.5784C20.2255 19.664 20.14 19.7496 19.7977 19.7496C19.1132 20.6052 18.2575 20.9474 17.3163 20.6052C16.8885 20.5196 16.6318 20.1774 16.5462 19.8351C16.3751 18.9795 17.1452 17.7816 17.7442 17.1826H16.0328C15.6906 18.8939 15.0916 21.1186 14.6638 22.3165C15.0061 22.6588 15.3484 23.0866 15.605 23.2577C17.2308 24.6268 19.1132 25.9958 19.4555 26.2525C19.7122 26.4237 20.2255 26.5948 20.4822 26.5948C20.5678 26.5948 20.6534 26.5948 20.7389 26.5948L19.3699 25.2257C19.1987 25.0546 19.1987 24.7979 19.3699 24.6268C19.541 24.4557 19.7977 24.4556 19.9688 24.6268L21.6801 26.3381C21.8513 26.5092 22.0224 26.4236 22.1935 26.4236C22.4502 26.3381 22.5358 26.1669 22.6213 25.9102L20.6533 23.9422C20.4822 23.7711 20.4822 23.5144 20.6533 23.3433C20.8245 23.1722 21.0812 23.1721 21.2523 23.3433L23.3914 25.4824C23.4769 25.5679 23.8192 25.5679 24.0759 25.4824C24.1615 25.3968 24.3326 25.3112 24.4182 25.1401L22.0224 22.7443C21.8512 22.5732 21.8512 22.3165 22.0224 22.1454C22.1935 21.9743 22.4502 21.9742 22.6213 22.1454L25.1027 24.6268C25.2738 24.7123 25.4449 24.6268 25.6161 24.5412C25.7016 24.4556 25.8728 24.1989 25.7016 23.8567Z" fill="#492C9E"/>
</svg>
