<svg width="41" height="41" viewBox="0 0 41 41" fill="none" xmlns="http://www.w3.org/2000/svg">
<path d="M22.4336 4H21.4668V19.5332H37V18.5664C37 10.5696 30.4304 4 22.4336 4Z" fill="#492C9E"/>
<path d="M9.03308 33.3344C11.585 35.5691 14.9157 37 18.5667 37C26.5636 37 33.0687 30.4304 33.0687 22.4336V21.4668H20.9006L9.03308 33.3344Z" fill="#9E85E8"/>
<path d="M19.5334 7.93164H18.5666C15.4094 7.93164 12.4937 8.95696 10.1101 10.6764L19.5334 20.0997V7.93164Z" fill="#9E85E8"/>
<path d="M8.6133 11.9141C5.81912 14.5591 4 18.2912 4 22.4337C4 26.0847 5.43086 29.4153 7.66564 31.9673L18.1661 21.4669L8.6133 11.9141Z" fill="#9E85E8"/>
</svg>
