<svg width="41" height="41" viewBox="0 0 41 41" fill="none" xmlns="http://www.w3.org/2000/svg">
<path d="M28.3466 19.0361C23.213 19.0361 19.0361 23.213 19.0361 28.3466C19.0361 33.4803 23.213 37.6571 28.3466 37.6571C33.4803 37.6571 37.6571 33.4803 37.6571 28.3466C37.6571 23.213 33.4803 19.0361 28.3466 19.0361ZM33.0047 26.0677L27.9914 31.7972C27.7307 32.0952 27.3583 32.2728 26.9615 32.2857C26.9457 32.2857 26.93 32.2857 26.9142 32.2857C26.5346 32.2857 26.1708 32.1353 25.9015 31.866L23.0368 29.0012C22.4767 28.4411 22.4767 27.5359 23.0368 26.9758C23.5968 26.4158 24.5021 26.4158 25.0622 26.9758L26.844 28.7577L30.849 24.1798C31.3704 23.5868 32.2756 23.5238 32.8701 24.0452C33.4645 24.5666 33.5261 25.4718 33.0047 26.0677Z" fill="#492C9E"/>
<path d="M27.1721 7.6199L15.7131 3.32276C15.5412 3.26546 15.3693 3.26546 15.1974 3.32276L3.73839 7.6199C3.46624 7.72017 3.28003 7.99232 3.28003 8.29312V17.5033C3.28003 30.5666 15.1831 33.3168 15.2977 33.3455C15.355 33.3598 15.398 33.3598 15.4553 33.3598C15.5126 33.3598 15.5555 33.3598 15.6128 33.3455C15.6415 33.3455 16.2001 33.2165 17.0595 32.8871C16.4866 31.4834 16.1715 29.9507 16.1715 28.3465C16.1715 21.8721 21.2421 16.558 27.6305 16.1855V8.29312C27.6305 7.99232 27.4443 7.72017 27.1721 7.6199V7.6199Z" fill="#9E85E8"/>
</svg>
