<svg width="41" height="41" viewBox="0 0 41 41" fill="none" xmlns="http://www.w3.org/2000/svg">
<path d="M2.65503 11.8564L2.68832 11.8813C3.12212 12.194 3.64645 12.3888 4.2145 12.4191L4.37049 12.4233H34.3256L34.4271 12.4263C35.3007 12.4769 36.0002 13.1764 36.0508 14.0499L36.0537 14.1515L36.0532 19.912H33.1735C30.9928 19.912 29.2164 21.643 29.1434 23.8058L29.141 23.9444C29.141 26.125 30.872 27.9014 33.0348 27.9744L33.1734 27.9768H36.0531L36.0536 33.7374L36.0507 33.8389C36.0001 34.7125 35.3006 35.412 34.427 35.4626L34.3255 35.4655H4.50721L4.40606 35.4627C3.53586 35.4124 2.83765 34.7182 2.78251 33.8483L2.77903 33.7471L2.65503 11.8564Z" fill="#9E85E8"/>
<path fill-rule="evenodd" clip-rule="evenodd" d="M37.2058 21.0645C37.8421 21.0645 38.3579 21.5802 38.3579 22.2165V25.6729C38.3579 26.3092 37.8421 26.825 37.2058 26.825H33.1734C31.5826 26.825 30.2931 25.5355 30.2931 23.9447C30.2931 22.354 31.5826 21.0645 33.1734 21.0645H37.2058ZM33.1733 22.7926C32.537 22.7926 32.0212 23.3084 32.0212 23.9447C32.0212 24.581 32.537 25.0968 33.1733 25.0968C33.8096 25.0968 34.3254 24.581 34.3254 23.9447C34.3254 23.3084 33.8096 22.7926 33.1733 22.7926Z" fill="#492C9E"/>
<path d="M11.7767 11.2713L15.2337 7.81494L4.37039 7.81504L4.26885 7.81802C3.36168 7.87058 2.64221 8.62284 2.64221 9.54322C2.64221 10.4636 3.36168 11.216 4.26885 11.2684L4.37039 11.2714L11.7767 11.2713Z" fill="#9E85E8"/>
<path d="M25.2889 11.271L19.348 5.33008L13.4071 11.271H25.2889Z" fill="#492C9E"/>
<path d="M30.3945 7.81802L30.293 7.81504L23.462 7.81494L26.9184 11.2713L32.0212 11.2714V9.54322L32.0182 9.44168C31.9676 8.5681 31.2681 7.8686 30.3945 7.81802Z" fill="#9E85E8"/>
</svg>
