<svg width="41" height="41" viewBox="0 0 41 41" fill="none" xmlns="http://www.w3.org/2000/svg">
<path d="M16.0925 22.5501C19.7437 22.5501 22.7037 19.5902 22.7037 15.9389C22.7037 12.2876 19.7437 9.32764 16.0925 9.32764C12.4412 9.32764 9.4812 12.2876 9.4812 15.9389C9.4812 19.5902 12.4412 22.5501 16.0925 22.5501Z" fill="#492C9E"/>
<path d="M28.9293 29.428C21.4917 23.1848 10.6911 23.1848 3.25345 29.428C3.01104 29.633 2.87 29.9371 2.87 30.2566V33.3C2.87 34.7897 3.85728 35.7726 5.07375 35.7726H27.1112C28.3277 35.7726 29.315 34.7897 29.315 33.5711V30.5784C29.315 29.9371 29.174 29.633 28.9293 29.428Z" fill="#9E85E8"/>
<path d="M24.9075 15.9387C24.9075 16.6902 24.8105 17.4196 24.632 18.1138C24.7268 18.1182 24.8127 18.1424 24.9075 18.1424C28.5525 18.1424 31.5188 15.1762 31.5188 11.5312C31.5188 7.88617 28.5525 4.91992 24.9075 4.91992C22.6465 4.91992 20.6521 6.06367 19.4598 7.79802C22.6531 9.12468 24.9075 12.2716 24.9075 15.9387Z" fill="#9E85E8"/>
<path d="M37.7443 25.0201C33.6894 21.6175 28.6362 20.0837 23.6733 20.3923C23.0298 21.4743 22.1726 22.4175 21.1434 23.1425C24.4733 23.9227 27.6643 25.4653 30.4278 27.8057C31.1418 28.4095 31.5187 29.3285 31.5187 30.2629V31.3647H35.9262C37.1427 31.3647 38.1299 30.3774 38.1299 29.161V25.8554C38.1299 25.5358 37.9889 25.2251 37.7443 25.0201Z" fill="#9E85E8"/>
</svg>
