<svg width="41" height="41" viewBox="0 0 41 41" fill="none" xmlns="http://www.w3.org/2000/svg">
<path d="M14.0417 5C12.3683 5 10.7634 5.66475 9.58016 6.84802C8.39689 8.03128 7.73214 9.63613 7.73214 11.3095C7.73214 12.9829 8.39689 14.5878 9.58016 15.771C10.7634 16.9543 12.3683 17.619 14.0417 17.619C15.7151 17.619 17.3199 16.9543 18.5032 15.771C19.6864 14.5878 20.3512 12.9829 20.3512 11.3095C20.3512 9.63613 19.6864 8.03128 18.5032 6.84802C17.3199 5.66475 15.7151 5 14.0417 5ZM6.16896 19.1964C5.75353 19.1948 5.34187 19.2751 4.95757 19.4329C4.57327 19.5907 4.2239 19.8228 3.92949 20.1159C3.63508 20.409 3.40142 20.7573 3.24192 21.1409C3.08241 21.5245 3.0002 21.9358 3 22.3512C3 25.0185 4.31396 27.0297 6.36771 28.3405C8.38991 29.6292 11.1156 30.2381 14.0417 30.2381C14.6884 30.2381 15.3288 30.2081 15.9503 30.1482C14.7119 28.6093 14.0383 26.6925 14.0417 24.7173C14.0417 22.6193 14.7862 20.6949 16.0244 19.1964H6.17054H6.16896Z" fill="#9E85E8"/>
<path d="M16.827 26.5049C16.6451 25.4098 16.6451 24.2923 16.827 23.1972C17.9452 23.2236 18.9496 22.6879 19.3403 21.7453C19.7309 20.8017 19.3991 19.712 18.5894 18.9419C19.2352 18.0382 20.0257 17.2473 20.9291 16.6012C21.7002 17.4109 22.7899 17.7426 23.7335 17.352C24.6771 16.9614 25.2118 15.9559 25.1844 14.8388C26.2801 14.6566 27.3984 14.6566 28.4941 14.8388C28.4667 15.9569 29.0024 16.9614 29.945 17.352C30.8886 17.7426 31.9783 17.4109 32.7484 16.6012C33.6521 17.2469 34.443 18.0375 35.0891 18.9409C34.2795 19.712 33.9477 20.8017 34.3383 21.7453C34.7289 22.6889 35.7344 23.2236 36.8515 23.1962C37.0337 24.2919 37.0337 25.4102 36.8515 26.5059C35.7334 26.4785 34.7289 27.0142 34.3383 27.9568C33.9477 28.9004 34.2795 29.9901 35.0891 30.7602C34.4434 31.6639 33.6529 32.4548 32.7494 33.1009C31.9783 32.2912 30.8886 31.9594 29.945 32.3501C29.0014 32.7407 28.4667 33.7462 28.4941 34.8633C27.3984 35.0455 26.2801 35.0455 25.1844 34.8633C25.2118 33.7452 24.6761 32.7407 23.7335 32.3501C22.7899 31.9594 21.7002 32.2912 20.9302 33.1009C20.0264 32.4552 19.2355 31.6646 18.5894 30.7612C19.3991 29.9901 19.7309 28.9004 19.3403 27.9568C18.9496 27.0132 17.9441 26.4785 16.827 26.5059V26.5049ZM26.8393 27.8949C27.6466 27.8949 28.4208 27.5742 28.9916 27.0034C29.5624 26.4325 29.8831 25.6583 29.8831 24.851C29.8831 24.0438 29.5624 23.2695 28.9916 22.6987C28.4208 22.1279 27.6466 21.8072 26.8393 21.8072C26.032 21.8072 25.2578 22.1279 24.687 22.6987C24.1161 23.2695 23.7954 24.0438 23.7954 24.851C23.7954 25.6583 24.1161 26.4325 24.687 27.0034C25.2578 27.5742 26.032 27.8949 26.8393 27.8949V27.8949Z" fill="#492C9E"/>
</svg>
