<svg width="41" height="41" viewBox="0 0 41 41" fill="none" xmlns="http://www.w3.org/2000/svg">
<path d="M21.9439 5.70338L6.20209 3.3113C5.47157 3.19671 4.72673 3.39724 4.16811 3.86993C3.60948 4.35694 3.28003 5.05881 3.28003 5.78932V35.9696C3.28003 36.7574 3.9246 37.402 4.71241 37.402H9.36765V29.882C9.36765 28.4926 10.4849 27.3753 11.8743 27.3753H15.4553C16.8447 27.3753 17.9619 28.4926 17.9619 29.882V37.402H24.0495V8.1814C24.0495 6.94955 23.1615 5.90391 21.9439 5.70338V5.70338ZM11.1581 24.1524H9.00955C8.41655 24.1524 7.93527 23.6712 7.93527 23.0782C7.93527 22.4852 8.41655 22.0039 9.00955 22.0039H11.1581C11.7511 22.0039 12.2324 22.4852 12.2324 23.0782C12.2324 23.6712 11.7511 24.1524 11.1581 24.1524ZM11.1581 19.8553H9.00955C8.41655 19.8553 7.93527 19.374 7.93527 18.781C7.93527 18.188 8.41655 17.7067 9.00955 17.7067H11.1581C11.7511 17.7067 12.2324 18.188 12.2324 18.781C12.2324 19.374 11.7511 19.8553 11.1581 19.8553ZM11.1581 15.5582H9.00955C8.41655 15.5582 7.93527 15.0769 7.93527 14.4839C7.93527 13.8909 8.41655 13.4096 9.00955 13.4096H11.1581C11.7511 13.4096 12.2324 13.8909 12.2324 14.4839C12.2324 15.0769 11.7511 15.5582 11.1581 15.5582ZM11.1581 11.261H9.00955C8.41655 11.261 7.93527 10.7797 7.93527 10.1867C7.93527 9.59372 8.41655 9.11244 9.00955 9.11244H11.1581C11.7511 9.11244 12.2324 9.59372 12.2324 10.1867C12.2324 10.7797 11.7511 11.261 11.1581 11.261ZM18.32 24.1524H16.1715C15.5784 24.1524 15.0972 23.6712 15.0972 23.0782C15.0972 22.4852 15.5784 22.0039 16.1715 22.0039H18.32C18.913 22.0039 19.3943 22.4852 19.3943 23.0782C19.3943 23.6712 18.913 24.1524 18.32 24.1524ZM18.32 19.8553H16.1715C15.5784 19.8553 15.0972 19.374 15.0972 18.781C15.0972 18.188 15.5784 17.7067 16.1715 17.7067H18.32C18.913 17.7067 19.3943 18.188 19.3943 18.781C19.3943 19.374 18.913 19.8553 18.32 19.8553ZM18.32 15.5582H16.1715C15.5784 15.5582 15.0972 15.0769 15.0972 14.4839C15.0972 13.8909 15.5784 13.4096 16.1715 13.4096H18.32C18.913 13.4096 19.3943 13.8909 19.3943 14.4839C19.3943 15.0769 18.913 15.5582 18.32 15.5582ZM18.32 11.261H16.1715C15.5784 11.261 15.0972 10.7797 15.0972 10.1867C15.0972 9.59372 15.5784 9.11244 16.1715 9.11244H18.32C18.913 9.11244 19.3943 9.59372 19.3943 10.1867C19.3943 10.7797 18.913 11.261 18.32 11.261Z" fill="#9E85E8"/>
<path d="M35.6804 18.5551L25.4818 16.4194V37.4024H35.1504C36.5326 37.4024 37.657 36.278 37.657 34.8957V21.0045C37.657 19.8213 36.8506 18.8144 35.6804 18.5551V18.5551ZM32.2856 33.1052H30.137C29.544 33.1052 29.0628 32.624 29.0628 32.031C29.0628 31.438 29.544 30.9567 30.137 30.9567H32.2856C32.8786 30.9567 33.3599 31.438 33.3599 32.031C33.3599 32.624 32.8786 33.1052 32.2856 33.1052ZM32.2856 28.8081H30.137C29.544 28.8081 29.0628 28.3268 29.0628 27.7338C29.0628 27.1408 29.544 26.6595 30.137 26.6595H32.2856C32.8786 26.6595 33.3599 27.1408 33.3599 27.7338C33.3599 28.3268 32.8786 28.8081 32.2856 28.8081ZM32.2856 24.511H30.137C29.544 24.511 29.0628 24.0297 29.0628 23.4367C29.0628 22.8437 29.544 22.3624 30.137 22.3624H32.2856C32.8786 22.3624 33.3599 22.8437 33.3599 23.4367C33.3599 24.0297 32.8786 24.511 32.2856 24.511Z" fill="#492C9E"/>
</svg>
