<svg width="41" height="41" viewBox="0 0 41 41" fill="none" xmlns="http://www.w3.org/2000/svg">
<path d="M20.6815 19.3252C24.6594 19.3252 27.8842 16.1005 27.8842 12.1226C27.8842 8.14465 24.6594 4.91992 20.6815 4.91992C16.7036 4.91992 13.4789 8.14465 13.4789 12.1226C13.4789 16.1005 16.7036 19.3252 20.6815 19.3252Z" fill="#492C9E"/>
<path d="M34.6668 26.8186C26.5638 20.0169 14.7971 20.0169 6.69412 26.8186C6.43002 27.0418 6.27637 27.3684 6.27637 27.7165C6.27637 28.8761 6.27637 31.6803 6.27637 33.7331C6.27637 35.0584 7.35196 36.1316 8.67725 36.1316H32.686C34.0113 36.1316 35.0869 35.0584 35.0869 33.7331V28.1871C35.0869 27.3684 34.9333 27.0418 34.6668 26.8186Z" fill="#9E85E8"/>
</svg>
