<svg width="41" height="41" viewBox="0 0 41 41" fill="none" xmlns="http://www.w3.org/2000/svg">
<path d="M24.7657 12.5956C23.975 12.5956 23.3333 11.9539 23.3333 11.1632V9.01467H17.6038V11.1632C17.6038 11.9539 16.9621 12.5956 16.1714 12.5956C15.3807 12.5956 14.739 11.9539 14.739 11.1632V9.01467C14.739 7.43475 16.0239 6.1499 17.6038 6.1499H23.3333C24.9132 6.1499 26.1981 7.43475 26.1981 9.01467V11.1632C26.1981 11.9539 25.5564 12.5956 24.7657 12.5956Z" fill="#492C9E"/>
<path d="M29.0629 21.1899V22.5077C29.0629 23.095 28.5759 23.582 27.9886 23.582C27.4013 23.582 26.9143 23.095 26.9143 22.5077V21.1899H14.0229V22.5077C14.0229 23.095 13.5359 23.582 12.9486 23.582C12.3613 23.582 11.8743 23.095 11.8743 22.5077V21.1899H3.28003V30.8585C3.28003 33.0357 5.04186 34.7976 7.21908 34.7976H33.7181C35.8953 34.7976 37.6572 33.0357 37.6572 30.8585V21.1899H29.0629Z" fill="#9E85E8"/>
<path d="M33.7181 10.4473H7.21908C5.04186 10.4473 3.28003 12.2091 3.28003 14.3863V19.0415H11.8743V17.2511C11.8743 16.6638 12.3613 16.1768 12.9486 16.1768C13.5359 16.1768 14.0229 16.6638 14.0229 17.2511V19.0415H26.9143V17.2511C26.9143 16.6638 27.4013 16.1768 27.9886 16.1768C28.5759 16.1768 29.0629 16.6638 29.0629 17.2511V19.0415H37.6572V14.3863C37.6572 12.2091 35.8953 10.4473 33.7181 10.4473Z" fill="#492C9E"/>
</svg>
