<svg width="41" height="41" viewBox="0 0 41 41" fill="none" xmlns="http://www.w3.org/2000/svg">
<path d="M30.4953 3.27979H7.57717C5.20372 3.27979 3.28003 5.20347 3.28003 7.57693C3.28003 9.95038 5.20372 11.8741 7.57717 11.8741H30.4953C32.8687 11.8741 34.7924 9.95038 34.7924 7.57693C34.7924 5.20347 32.8687 3.27979 30.4953 3.27979ZM7.57717 9.00931C6.7865 9.00931 6.14479 8.3676 6.14479 7.57693C6.14479 6.78625 6.7865 6.14455 7.57717 6.14455C8.36785 6.14455 9.00955 6.78625 9.00955 7.57693C9.00955 8.3676 8.36785 9.00931 7.57717 9.00931ZM13.3067 9.00931C12.516 9.00931 11.8743 8.3676 11.8743 7.57693C11.8743 6.78625 12.516 6.14455 13.3067 6.14455C14.0974 6.14455 14.7391 6.78625 14.7391 7.57693C14.7391 8.3676 14.0974 9.00931 13.3067 9.00931Z" fill="#9E85E8"/>
<path fill-rule="evenodd" clip-rule="evenodd" d="M7.57717 26.1089H30.4953C32.8687 26.1089 34.7924 28.0326 34.7924 30.406C34.7924 32.7795 32.8687 34.7032 30.4953 34.7032H7.57717C5.20372 34.7032 3.28003 32.7795 3.28003 30.406C3.28003 28.0326 5.20372 26.1089 7.57717 26.1089ZM6.14479 30.406C6.14479 31.1967 6.7865 31.8384 7.57717 31.8384C8.36785 31.8384 9.00955 31.1967 9.00955 30.406C9.00955 29.6154 8.36785 28.9736 7.57717 28.9736C6.7865 28.9736 6.14479 29.6154 6.14479 30.406ZM11.8743 30.406C11.8743 31.1967 12.516 31.8384 13.3067 31.8384C14.0974 31.8384 14.7391 31.1967 14.7391 30.406C14.7391 29.6154 14.0974 28.9736 13.3067 28.9736C12.516 28.9736 11.8743 29.6154 11.8743 30.406Z" fill="#9E85E8"/>
<path fill-rule="evenodd" clip-rule="evenodd" d="M7.57717 14.6943H30.4953C32.8687 14.6943 34.7924 16.618 34.7924 18.9915C34.7924 21.3649 32.8687 23.2886 30.4953 23.2886H7.57717C5.20372 23.2886 3.28003 21.3649 3.28003 18.9915C3.28003 16.618 5.20372 14.6943 7.57717 14.6943ZM6.14479 18.9915C6.14479 19.7822 6.7865 20.4239 7.57717 20.4239C8.36785 20.4239 9.00955 19.7822 9.00955 18.9915C9.00955 18.2008 8.36785 17.5591 7.57717 17.5591C6.7865 17.5591 6.14479 18.2008 6.14479 18.9915ZM11.8743 18.9915C11.8743 19.7822 12.516 20.4239 13.3067 20.4239C14.0974 20.4239 14.7391 19.7822 14.7391 18.9915C14.7391 18.2008 14.0974 17.5591 13.3067 17.5591C12.516 17.5591 11.8743 18.2008 11.8743 18.9915Z" fill="#9E85E8"/>
<path d="M37.9269 27.5419L37.9276 27.5431C38.2955 28.1825 38.1333 28.9977 37.5425 29.4447C37.5425 29.4448 37.5424 29.4449 37.5423 29.4449L36.598 30.1597C36.6088 30.2678 36.6166 30.3827 36.6166 30.4954C36.6166 30.609 36.609 30.7234 36.5983 30.8313L37.541 31.5446L37.5427 31.5459C38.13 31.9929 38.2955 32.807 37.9256 33.4473C37.9255 33.4474 37.9255 33.4475 37.9254 33.4476L36.7674 35.453L37.9269 27.5419ZM37.9269 27.5419L36.7681 25.5365L36.7681 25.5365M37.9269 27.5419L36.7681 25.5365M36.7681 25.5365C36.3994 24.8986 35.6115 24.6303 34.9288 24.9187L33.8314 25.3811C33.6488 25.258 33.4571 25.1415 33.2551 25.0358L33.1087 23.8676L33.1084 23.8657M36.7681 25.5365L33.1084 23.8657M33.1084 23.8657C33.015 23.1362 32.3954 22.5835 31.654 22.5835H29.3378C28.5992 22.5835 27.9747 23.1338 27.8832 23.8676C27.8832 23.8676 27.8832 23.8676 27.8832 23.8677C27.8832 23.868 27.8831 23.8683 27.8831 23.8686L27.7368 25.0359C27.5346 25.1417 27.3429 25.2583 27.1607 25.3812L26.0631 24.9187C26.063 24.9186 26.0628 24.9186 26.0627 24.9185C26.0626 24.9185 26.0626 24.9184 26.0625 24.9184C25.3821 24.6314 24.5931 24.8953 24.2234 25.5371C24.2233 25.5373 24.2232 25.5375 24.223 25.5378L23.065 27.5418C23.065 27.5418 23.065 27.5418 23.0649 27.5419C22.6949 28.1822 22.8604 28.9965 23.4477 29.4435L23.4493 29.4447M33.1084 23.8657L23.4493 29.4447M23.4493 29.4447L24.3935 30.1594M23.4493 29.4447L24.3935 30.1594M24.3935 30.1594C24.3828 30.2673 24.3752 30.3817 24.3752 30.4954C24.3752 30.6081 24.3831 30.723 24.3939 30.8311L23.4496 31.5459C23.4495 31.5459 23.4494 31.546 23.4493 31.5461C22.8585 31.9931 22.6964 32.8083 23.0642 33.4477L23.0648 33.4487L24.2236 35.4555L24.2238 35.4558C24.5925 36.0937 25.3804 36.3619 26.063 36.0736C26.063 36.0736 26.0631 36.0736 26.0631 36.0736L27.1608 35.6099C27.3433 35.733 27.5348 35.8494 27.7368 35.955L27.8831 37.1222C27.8831 37.1225 27.8832 37.1228 27.8832 37.1231C27.8832 37.1231 27.8832 37.1232 27.8832 37.1232C27.9745 37.8551 28.5959 38.4073 29.3364 38.4073H31.6526C32.3912 38.4073 33.0157 37.857 33.1072 37.1232C33.1072 37.1232 33.1072 37.1231 33.1072 37.1231C33.1073 37.1228 33.1073 37.1225 33.1073 37.1222L33.2536 35.9549C33.4558 35.8491 33.6475 35.7325 33.8298 35.6096L34.9274 36.0721L24.3935 30.1594ZM34.928 36.0724C35.6082 36.3594 36.397 36.0957 36.7668 35.4541L34.928 36.0724ZM30.4952 32.6102C29.3266 32.6102 28.3805 31.664 28.3805 30.4954C28.3805 29.3268 29.3266 28.3806 30.4952 28.3806C31.6638 28.3806 32.61 29.3268 32.61 30.4954C32.61 31.664 31.6638 32.6102 30.4952 32.6102Z" fill="#492C9E" stroke="white" stroke-width="1.5"/>
</svg>
